<?xml version="1.0" standalone="no"?>
<!DOCTYPE svg PUBLIC "-//W3C//DTD SVG 1.1//EN" "http://www.w3.org/Graphics/SVG/1.1/DTD/svg11.dtd" >
<!--
2013-9-30: Created.
-->
<svg>
<metadata>
Created by iconfont
</metadata>
<defs>

<font id="iconfont" horiz-adv-x="1024" >
  <font-face
    font-family="iconfont"
    font-weight="500"
    font-stretch="normal"
    units-per-em="1024"
    ascent="896"
    descent="-128"
  />
    <missing-glyph />
    
    <glyph glyph-name="x" unicode="x" horiz-adv-x="1001"
d="M281 543q-27 -1 -53 -1h-83q-18 0 -36.5 -6t-32.5 -18.5t-23 -32t-9 -45.5v-76h912v41q0 16 -0.5 30t-0.5 18q0 13 -5 29t-17 29.5t-31.5 22.5t-49.5 9h-133v-97h-438v97zM955 310v-52q0 -23 0.5 -52t0.5 -58t-10.5 -47.5t-26 -30t-33 -16t-31.5 -4.5q-14 -1 -29.5 -0.5
t-29.5 0.5h-32l-45 128h-439l-44 -128h-29h-34q-20 0 -45 1q-25 0 -41 9.5t-25.5 23t-13.5 29.5t-4 30v167h911zM163 247q-12 0 -21 -8.5t-9 -21.5t9 -21.5t21 -8.5q13 0 22 8.5t9 21.5t-9 21.5t-22 8.5zM316 123q-8 -26 -14 -48q-5 -19 -10.5 -37t-7.5 -25t-3 -15t1 -14.5
t9.5 -10.5t21.5 -4h37h67h81h80h64h36q23 0 34 12t2 38q-5 13 -9.5 30.5t-9.5 34.5q-5 19 -11 39h-368zM336 498v228q0 11 2.5 23t10 21.5t20.5 15.5t34 6h188q31 0 51.5 -14.5t20.5 -52.5v-227h-327z" />
    

    
    <glyph glyph-name="cancel" unicode="&#59133;" d="M1012 708.268 937.945 782.33 518.508 362.89 86.752 794.646 12 719.888 443.752 288.133 37.87-117.752 111.919-191.806 517.806 214.078 926.528-194.646 1001.286-119.888 592.563 288.835Z"  horiz-adv-x="1024" />

    
    <glyph glyph-name="fanhui" unicode="&#58913;" d="M773.871518-47.182957999999985L345.750835 386.044116 770.412713 815.802158c17.994581 18.180714 17.994581 47.692031 0 65.871722-17.971058 18.180714-47.111132 18.180714-65.081167 0l-446.933432-452.273c-8.498719-8.597922-12.972052-19.726029-13.432272-30.992201-8.169407-17.551747-5.089004-39.138085 9.252456-53.661589l453.504343-458.868456c18.249236-18.504913 47.877141-18.504913 66.148877 0C792.145299-95.63997600000005 792.145299-65.66537100000005 773.871518-47.182957999999985z"  horiz-adv-x="1024" />

    
    <glyph glyph-name="tuichu" unicode="&#58925;" d="M822.751 602.223c-13.447 13.447-35.242 13.447-48.707 0-13.465-13.483-13.465-35.277 0-48.725 144.48-144.497 144.48-379.592 0-524.09-144.443-144.461-379.574-144.461-524.089 0-144.479 144.498-144.479 379.593 0 524.09 13.466 13.447 13.466 35.241 0 48.725-13.465 13.447-35.258 13.447-48.706 0C118.232 519.206 72.496 408.856 72.496 291.472S118.232 63.702 201.249-19.279c85.659-85.715 198.195-128.535 310.75-128.535s225.09 42.82 310.752 128.535c83.018 82.98 128.752 193.367 128.752 310.751S905.769 519.206 822.751 602.223zM511.999 136.042c19.041 0 34.457 15.452 34.457 34.476L546.456 713.375c0 19.023-15.416 34.438-34.457 34.438S477.542 732.398 477.542 713.375l0-542.857C477.542 151.494 492.958 136.042 511.999 136.042z"  horiz-adv-x="1024" />

    
    <glyph glyph-name="dizhi" unicode="&#58893;" d="M512.002558 203.740656c-105.96438 0-192.141088 86.173638-192.141088 192.132902 0 105.96438 86.175685 192.141088 192.141088 192.141088 105.960287 0 192.134949-86.176708 192.134949-192.141088C704.137507 289.913271 617.962845 203.740656 512.002558 203.740656L512.002558 203.740656zM512.002558 523.967958c-70.647013 0-128.095423-57.44841-128.095423-128.095423 0-70.640873 57.44841-128.089283 128.095423-128.089283 70.640873 0 128.089283 57.44841 128.089283 128.089283C640.091842 466.519548 582.643432 523.967958 512.002558 523.967958L512.002558 523.967958zM512.002558-148.517153c-7.945973 0-15.920598 2.946099-22.096251 8.839319-12.778024 12.230556-13.262048 32.504298-1.061169 45.281299 86.591147 90.782609 311.3624 355.838358 311.3624 490.270093 0 158.898986-129.278365 288.210098-288.206004 288.210098-158.898986 0-288.210098-129.310088-288.210098-288.210098 0-75.6694 72.595388-206.224852 204.40439-367.68722 11.209296-13.739932 9.157567-33.911344-4.548596-45.056172-13.706163-11.175527-33.911344-9.155521-45.057195 4.549619C233.36856 165.533472 159.746796 302.882654 159.746796 395.872534c0 194.22147 158.033269 352.254739 352.254739 352.254739 194.217377 0 352.250646-158.034293 352.250646-352.254739 0-187.491185-315.6521-520.403391-329.070714-534.461571C528.873808-145.185268 520.455067-148.517153 512.002558-148.517153L512.002558-148.517153zM512.002558-148.517153"  horiz-adv-x="1024" />

    
    <glyph glyph-name="youxiang" unicode="&#58884;" d="M850.924-78.604h-679.195c-62.385 0-113.197 50.815-113.197 113.197v509.391c0 62.385 50.815 113.197 113.197 113.197h679.195c62.385 0 113.197-50.815 113.197-113.197v-509.391c0-62.385-50.815-113.197-113.197-113.197v0 0zM200.242 600.589l311.503-270.606 311.503 270.606h-623.008zM907.524 543.988c0 16.111-7.025 30.989-17.767 41.313l-378.022-324.306-378.022 324.306c-11.155-10.323-17.767-24.793-17.767-41.313v-509.391c0-31.398 25.202-56.603 56.603-56.603h679.195c31.398 0 56.603 25.202 56.603 56.603v509.391h-0.826zM907.524 543.988z"  horiz-adv-x="1024" />

    
    <glyph glyph-name="circle" unicode="&#58897;" d="M64.416 291.887c0-247.268 200.451-447.719 447.719-447.719s447.719 200.451 447.719 447.719c0 0 0 0-0 0 0 247.268-200.451 447.719-447.719 447.719-247.268 0-447.719-200.451-447.719-447.719 0-0 0-0 0-0z"  horiz-adv-x="1024" />

    
    <glyph glyph-name="checkmarkcircle" unicode="&#58905;" d="M486.4-212c-129.9456 0-252.0576 50.5856-343.9616 142.4384s-142.4384 214.016-142.4384 343.9104c0 129.9456 50.5856 252.0576 142.4384 343.9616s214.016 142.4896 343.9616 142.4896c129.9456 0 252.0576-50.5856 343.9616-142.4896s142.4384-214.016 142.4384-343.9616-50.5856-252.0576-142.4384-343.9104c-91.8528-91.8528-214.016-142.4384-343.9616-142.4384zM486.4 709.6c-239.9744 0-435.2-195.2256-435.2-435.2s195.2256-435.2 435.2-435.2 435.2 195.2256 435.2 435.2-195.2256 435.2-435.2 435.2zM384 69.6c-6.5536 0-13.1072 2.5088-18.1248 7.4752l-153.6 153.6c-9.984 9.984-9.984 26.2144 0 36.1984s26.2144 9.984 36.1984 0l135.4752-135.4752 340.2752 340.2752c9.984 9.984 26.2144 9.984 36.1984 0s9.984-26.2144 0-36.1984l-358.4-358.4c-5.0176-5.0176-11.5712-7.4752-18.1248-7.4752z"  horiz-adv-x="1024" />

    
    <glyph glyph-name="play" unicode="&#58985;" d="M887.199823 297.243213 134.973576-150.420503 134.973576 749.402313 887.199823 297.243213z"  horiz-adv-x="1024" />

    
    <glyph glyph-name="iconfonticonfonticonfont27" unicode="&#58959;" d="M685.644 522.724l-240.121-241.425-108.17 108.069c-10.034 9.934-26.19 9.934-36.224 0-10.034-10.034-10.034-26.19 0-36.123l126.633-126.532c10.034-9.934 26.19-9.934 36.224 0 1.204 1.204 2.208 2.509 3.111 3.813l254.771 256.075c9.934 10.034 9.934 26.19 0 36.123-10.034 9.934-26.19 9.934-36.224 0v0zM522.285 730.835c-197.876 0-358.124-160.248-358.124-358.124s160.248-358.124 358.124-358.124c197.876 0 358.124 160.248 358.124 358.124 0.1 197.876-160.248 358.124-358.124 358.124v0zM522.285 59.34c-172.991 0-313.371 140.38-313.371 313.371 0 173.092 140.38 313.371 313.371 313.371 172.991 0 313.371-140.38 313.371-313.371 0-172.991-140.279-313.371-313.371-313.371v0zM522.285 59.34z"  horiz-adv-x="1024" />

    
    <glyph glyph-name="xiugaimimaxiaoyanjing" unicode="&#58923;" d="M512 618.0864c-149.7088 0-266.4448-89.2928-409.6-234.0864 123.2896-123.6992 226.7136-234.0864 409.6-234.0864 182.6816 0 317.0304 139.6736 409.6 231.424C826.9824 488.8576 692.6336 618.0864 512 618.0864L512 618.0864zM512 217.088c-90.3168 0-163.84 74.9568-163.84 166.912 0 92.16 73.5232 166.912 163.84 166.912 90.3168 0 163.84-74.9568 163.84-166.912C675.84 291.84 602.3168 217.088 512 217.088L512 217.088zM512 217.088M512 442.5728c0 14.5408 5.3248 27.648 13.9264 37.888-4.5056 0.8192-9.216 1.024-13.9264 1.024-52.6336 0-95.6416-43.6224-95.6416-97.4848s43.008-97.4848 95.6416-97.4848c52.6336 0 95.6416 43.6224 95.6416 97.4848 0 4.3008-0.4096 8.3968-0.8192 12.6976-10.0352-7.7824-22.528-12.6976-36.2496-12.6976C538.2144 384 512 410.2144 512 442.5728L512 442.5728zM512 442.5728"  horiz-adv-x="1024" />

    
    <glyph glyph-name="pindao" unicode="&#58989;" d="M512 452.266667c-56.32 0-102.4-47.786667-102.4-104.106667 0-58.026667 46.08-104.106667 102.4-104.106667 56.32 0 102.4 47.786667 102.4 104.106667C614.4 406.186667 568.32 452.266667 512 452.266667zM819.2 348.15999999999997c0 172.373333-138.24 312.32-307.2 312.32-168.96 0-307.2-139.946667-307.2-312.32 0-116.053333 61.44-216.746667 153.6-271.36l51.2 90.453333c-61.44 35.84-102.4 102.4-102.4 179.2 0 116.053333 92.16 208.213333 204.8 208.213333 112.64 0 204.8-93.866667 204.8-208.213333 0-76.8-40.96-143.36-102.4-179.2l51.2-90.453333C757.76 133.12 819.2 233.81333299999994 819.2 348.15999999999997zM512 870.4C228.693333 870.4 0 636.586667 0 348.15999999999997c0-192.853333 102.4-360.106667 256-450.56l51.2 90.453333C184.32 59.733333000000016 102.4 194.55999999999995 102.4 348.15999999999997 102.4 578.56 285.013333 766.293333 512 766.293333c226.986667 0 409.6-186.026667 409.6-416.426667 0-153.6-81.92-288.426667-204.8-360.106667l51.2-90.453333c153.6 90.453333 256 257.706667 256 450.56C1024 636.586667 795.306667 870.4 512 870.4z"  horiz-adv-x="1024" />

    
    <glyph glyph-name="right" unicode="&#58880;" d="M742.796326 358.612385l-412.302222-365.315793c-13.530074-13.09203-35.468326-13.09203-49.000296 0-13.530074 13.088237-13.530074 34.309689 0 47.403615l387.449363 343.296-387.449363 343.305481c-13.530074 13.088237-13.530074 34.305896 0 47.397926 13.533867 13.09203 35.472119 13.09203 49.000296 0l412.302222-365.319585c7.215407-6.987852 10.2912-16.241778 9.807644-25.383822C753.087526 374.85416299999997 750.011733 365.59265200000004 742.796326 358.612385z"  horiz-adv-x="1024" />

    
    <glyph glyph-name="success" unicode="&#58988;" d="M1206.08991 822.345654q-255.744256-227.100899-613.786214-767.232767l-117.642358-183.112887q-147.308691 184.135864-474.661339 511.488511l109.458541 109.458541 292.571429-255.744256q153.446553 153.446553 285.410589 278.24975t210.733267 191.296703 134.00999 113.55045 78.769231 60.355644l21.482517 14.321678q4.091908 0 11.252747-2.045954t26.597403-19.436563 35.804196-51.148851z"  horiz-adv-x="1215" />

    
    <glyph glyph-name="jiazaizhong" unicode="&#58935;" d="M745.801419 44.648129c9.537214-16.141632 4.196579-37.642319-12.421914-46.705742-16.420995-9.53926-37.201274-3.917216-46.508243 12.487406-9.997702 16.126282-4.131087 37.151132 11.960403 46.671972C715.71417 66.641025 736.33072 60.773388 745.801419 44.648129L745.801419 44.648129zM544.09958-28.211273 544.09958-28.211273c0-18.600637-15.46932-34.252105-34.676777-34.252105-18.649755 0-34.249035 15.174608-34.249035 34.252105l0 23.957645c0 19.060101 15.600303 34.233686 34.249035 34.233686 19.009959 0 34.676777-15.173584 34.676777-34.233686L544.09958-28.211273 544.09958-28.211273zM332.827783 10.429793 332.827783 10.429793c-9.800203-16.895809-30.809703-22.272259-46.934962-12.732999-16.651238 9.309016-22.51683 30.30112-12.716626 46.951335l25.433252 44.493354c9.767458 16.402575 30.777981 22.008246 47.394427 12.715603 16.191774-9.553587 22.025643-30.807656 12.258185-46.933939L332.827783 10.429793 332.827783 10.429793zM169.046602 148.810467 169.046602 148.810467c-16.650215-9.31004-37.921681-3.671623-46.966685 12.731976-9.767458 16.125259-4.195555 37.414121 12.192693 46.918589l68.50114 39.627533c16.322757 9.028631 37.625946 3.916193 46.902216-12.701277 9.276271-16.159028 3.736091-37.429471-12.684904-46.966685L169.046602 148.810467 169.046602 148.810467zM96.121709 351.018841 96.121709 351.018841c-19.010983 0-34.18559 15.421224-34.18559 34.251082 0 19.075451 15.174608 34.479279 34.18559 34.479279l106.652042 0c19.042705 0 34.217313-15.403828 34.217313-34.251082 0-19.058055-15.174608-34.479279-34.217313-34.479279L96.121709 351.018841 96.121709 351.018841zM134.271588 562.521906 134.271588 562.521906c-16.650215 9.323343-21.959128 30.349215-12.192693 46.704718 9.045003 16.651238 30.316469 22.255887 46.966685 12.717649l115.829052-67.239404c16.419971-9.275247 21.796422-30.30112 12.749372-46.442752-9.800203-16.650215-30.807656-22.024619-46.934962-12.700253L134.271588 562.521906 134.271588 562.521906zM273.176195 726.366531 273.176195 726.366531l80.661088-140.115178c9.865695-16.35448 30.775934-22.25384 47.230698-12.471033 16.387225 9.30697 21.728884 30.56411 12.19167 46.934962l-80.9558 139.871631c-9.275247 16.124236-30.284747 22.024619-46.411029 12.487406C269.241582 763.535059 263.867178 742.492814 273.176195 726.366531L273.176195 726.366531zM475.173768 798.752142 475.173768 798.752142c0 18.550495 15.600303 34.479279 34.249035 34.479279 19.009959 0 34.676777-15.404852 34.676777-34.479279l0-161.386644c0-19.076474-15.46932-34.463929-34.676777-34.725896-18.649755 0-34.249035 15.174608-34.249035 34.725896L475.173768 798.752142 475.173768 798.752142zM686.379051 760.585891 686.379051 760.585891c9.79918 16.649192 30.580482 22.024619 47.001477 12.715603 16.617469-9.292644 22.451338-30.317493 12.650111-46.934962l-80.9558-140.115178c-8.979512-16.35448-30.513968-22.25384-46.835701-12.716626-16.45374 9.552563-21.829168 30.80868-12.521175 47.179532L686.379051 760.585891 686.379051 760.585891zM850.71691 621.94325 850.71691 621.94325l-140.345422-80.939427c-16.388249-9.275247-21.991874-30.30112-12.748349-46.934962 9.79918-16.125259 30.874171-21.500687 46.967708-12.472056l140.40989 80.924077c16.059767 9.323343 21.926382 30.349215 12.226462 46.704718C887.949906 625.877863 866.875938 631.744477 850.71691 621.94325L850.71691 621.94325zM922.855904 419.749202 922.855904 419.749202c19.304671 0 34.482349-15.403828 34.253128-34.479279 0-18.829857-14.947434-34.251082-34.253128-34.251082L761.20627 351.018841c-18.550495 0-34.184567 15.421224-34.184567 34.479279 0 18.84623 15.634072 34.251082 34.184567 34.251082L922.855904 419.749202 922.855904 419.749202z"  horiz-adv-x="1024" />

    
    <glyph glyph-name="huozai" unicode="&#59056;" d="M733.541187 250.750183c0 0 7.03523-176.524412-169.446203-192.407148 0 0-22.859637 5.405103 45.835931 49.481971 0 0 40.618093 72.442916-40.618093 160.624281 0 0-3.921309-35.297924-11.618619-45.415352 0 0-56.70242 53.387931-47.075155 129.232316 0 0 11.964496 36.365232-4.783956 25.122167 0 0-39.810704-42.130539-32.691563-86.351694 0 0 24.303522-109.052718-8.791224-102.467743 0 0 1.701758 83.412758-24.560372 75.514881 0 0 0.833995-49.080835-7.063883-68.537979 0 0-53.243645-77.098959 7.898901-112.484887 0 0 9.426697-19.905352-22.455431-9.295714-31.739888 10.521634 0 0 0 0s-187.090049 90.530876-96.514147 274.101775c0 0 70.712505 129.449257 24.618701 206.102055 0 0-25.886577 71.795163 58.950623-32.979112 0 0 62.46875-118.883621 110.148679 48.214095 0 0 27.530007 50.577932-6.484691 166.103062 0 0 41.221844 29.259394 94.149287-110.855784 0 0 25.944905-83.541695-19.948331-169.46053 0 0-31.710212-61.228503 34.073026-16.546861 0 0 33.152051 90.762143 59.960627 82.546018 0 0 14.099113-5.894244 0-47.218418 0 0-15.420201-71.709205 20.12127-117.658723C697.219957 356.17221099999995 728.957799 304.41236000000004 733.541187 250.750183L733.541187 250.750183zM733.541187 250.750183M287.670304 129.47304899999995c0 0 29.432333-48.402383-17.58347-80.470753 0 0-7.121188-1.989307 5.215792 20.956288 0 0 0.088004 26.752294-36.58115 38.731116 0 0 4.553713-10.479679 3.777023-14.687514 0 0-24.273846 6.254447-33.383318 29.071106 0 0-2.218528 12.150738-5.361101 6.212492 0 0-4.353145-18.189268 4.496407-29.173436 0 0 23.985274-26.852578 13.461593-30.296003 0 0-12.596899 23.853267-18.909675 17.424858 0 0 8.128121-13.475919 8.849552-20.323884 0 0-2.794649-30.022781 19.862373-30.296003 0 0 5.822612-4.137227-4.526083-6.213515-10.606569-1.815345 0 0 0 0s-66.936505-3.904936-70.222341 61.951981c0 0-0.432859 47.304376-25.166169 61.603033 0 0-18.564821 16.056698 21.7647 0 0 0 35.803437-23.682375 23.175839 30.789237 0 0 0 18.419512-27.558659 45.444005 0 0 6.80294 14.744819 43.585681-16.271592 0 0 20.209274-19.558451 20.813025-50.577932 0 0 0.807389-22.227234 12.107759 0.503467 0 0-4.726651 30.572296 4.179183 32.705889 0 0 4.699022 0.402159 7.294127-13.245675 0 0 6.803963-22.457478 23.783683-29.980825C260.773723 153.27105800000004 278.185278 143.79933600000004 287.670304 129.47304899999995L287.670304 129.47304899999995zM287.670304 129.47304899999995M734.580866 141.351588c0 0-29.836539-48.445362 17.411555-80.516802 0 0 7.119141-1.988284-5.160533 20.958334 0 0-0.403183 26.808576 36.522822 38.829354 0 0-4.466732-10.565636-3.603061-14.600533 0 0 23.956621 6.025227 33.06507 28.986171 0 0 2.537799 11.961426 5.305843 6.383384 0 0 4.553713-18.276249-3.921309-29.520337 0 0-24.330128-26.764574-14.038738-30.167067 0 0 12.627598 23.855314 18.969027 17.370623 0 0-8.131191-13.649881-8.79327-20.222577 0 0 2.998287-30.03813-19.97596-30.255071 0 0-5.650697-4.351098 5.043876-6.355755 10.464329-1.859347 0 0 0 0s66.618257-3.675716 69.90614 61.818951c0 0 0.546446 47.494711 25.254174 61.879326 0 0 18.561751 16.056698-21.678742 0 0 0-36.381605-23.64042-23.410176 30.743188 0 0 0.146333 18.377556 27.616988 45.405119 0 0-6.803963 14.656815-43.499723-16.374946 0 0-20.296255-19.357883-20.813025-50.579979 0 0-0.548492-22.035876-12.166087 0.909719 0 0 4.783956 30.355355-4.03592 32.301683 0 0-4.929266 0.547469-7.552-13.332656 0 0-6.718005-22.456455-23.726378-29.80891C761.331114 165.075919 744.207108 155.46195699999998 734.580866 141.351588L734.580866 141.351588zM734.580866 141.351588"  horiz-adv-x="1024" />

    
    <glyph glyph-name="shouye" unicode="&#59097;" d="M970.397175 449.827241L598.96977 836.070072c-23.041786 23.924899-53.93233 37.21867-86.970794 37.21867-33.042557 0-63.931055-13.163811-86.968747-37.21867L53.723575 449.827241c-38.356586-39.878243-33.419134-74.31045-27.092032-88.74316 4.558829-10.256598 19.748786-38.231743 63.677275-38.231743l54.437843 0 0-297.117978c0-67.470671 48.483224-131.022079 117.347638-131.022079l158.119227 0L420.213527 209.17222900000002c0 33.672914-5.063319 52.538587 29.375028 52.538587l124.944664 0c34.434254 0 29.370935-18.735713 29.370935-52.538587L603.904153-105.28771900000004l157.992337 0c68.864414 0 117.353778 63.550385 117.353778 131.022079L879.250268 322.85233800000003l54.43375 0c43.928488 0 59.120492 28.107151 63.675228 38.231743C1003.691465 375.516792 1008.628918 409.948999 970.397175 449.827241L970.397175 449.827241 970.397175 449.827241zM933.685042 383.99488299999996l-115.705232 0 0-358.261547c0-33.670867-21.773909-69.75162-56.206116-69.75162l-96.849792 0L664.923902 209.17222900000002c0 67.476811-21.648043 113.680109-90.51655 113.680109L449.461665 322.85233800000003c-68.868507 0-90.518596-46.203298-90.518596-113.680109l0-253.316379L262.093277-44.14414999999997c-34.432207 0-56.206116 36.080753-56.206116 69.75162L205.887161 383.869017l-115.705232 0c-1.137916 0-2.025123 4.182252-2.910283 4.308119 2.148943 3.671623 5.822612 13.036921 11.896958 19.370163L470.593961 793.531234c11.017938 11.647271 26.716478 18.608823 41.909505 18.482957 15.187911 0.125867 29.873378-6.964622 41.012066-18.482957l371.304607-385.860115c6.075369-6.327102 9.748015-15.696494 11.773138-19.370163-0.76134-0.12382-1.772366-4.299933-2.910283-4.299933L933.685042 383.99488299999996 933.685042 383.99488299999996zM933.685042 383.99488299999996"  horiz-adv-x="1024" />

    
    <glyph glyph-name="ico-user-info1" unicode="&#58953;" d="M844.838 800.542h-665.676c-98.903 0-179.079-80.176-179.079-179.079l0-472.214c0-98.903 80.176-179.079 179.079-179.079h665.676c98.903 0 179.079 80.176 179.079 179.079l-0 472.214c0 98.903-80.176 179.079-179.079 179.079zM972.063 156.386c0-73.93-59.932-133.863-133.863-133.863l-652.402 0c-73.93 0-133.863 59.932-133.863 133.863l-0 457.942c0 73.93 59.932 133.863 133.863 133.863h652.402c73.93 0 133.863-59.932 133.863-133.863l0-457.942zM437.533 353.279h-1.132c34.609 25.816 55.884 65.945 55.884 112.443 0 78.207-63.402 141.608-141.606 141.608-78.207 0-141.608-63.401-141.608-141.608 0-46.498 21.847-87.193 56.451-113.009-75.226-25.574-131.889-86.891-137.653-131.349-4.958-38.238 21.69-55.561 40.274-60.39 9.108-2.367 16.213 2.716 16.779 8.656 0.658 6.903-8.191 9.999-17.062 14.822-9.055 4.923-23.609 18.412-15.027 45.541 11.691 36.961 68.111 89.762 134.427 109.457 20.037-10.865 39.029-15.334 63.426-15.334 24.395 0 42.816 3.909 62.86 14.768 59.629-23.095 109.958-52.451 133.788-104.366 5.433-11.837 12.823-37.338-6.789-49.030-9.874-5.886-22.072-4.984-23.311-13.591-1.355-9.407 5.884-13.799 14.448-11.518 16.404 4.368 50.348 18.701 42.429 61.692-9.486 51.506-74.677 113.712-136.578 131.207zM350.685 347.386c-67.54 0-118.338 50.796-118.338 118.336s50.798 118.338 118.338 118.338c67.54 0 118.336-50.798 118.336-118.338s-50.797-118.336-118.336-118.336zM875.614 550.97h-217.964c-10.173 0-18.42-8.247-18.42-18.42s8.247-18.42 18.42-18.42h217.964c10.173 0 18.42 8.247 18.42 18.42-0 10.173-8.247 18.42-18.42 18.42zM875.614 406.172h-217.964c-10.173 0-18.42-8.247-18.42-18.42 0-10.173 8.247-18.42 18.42-18.42h217.964c10.173 0 18.42 8.247 18.42 18.42-0 10.173-8.247 18.42-18.42 18.42zM875.614 261.374h-217.964c-10.173 0-18.42-8.247-18.42-18.42 0-10.173 8.247-18.42 18.42-18.42h217.964c10.173 0 18.42 8.247 18.42 18.42-0 10.173-8.247 18.42-18.42 18.42z"  horiz-adv-x="1024" />

    
    <glyph glyph-name="gerenzhongxinzhuyegerenziliao" unicode="&#58899;" d="M978.673164-32.708703c0-13.074783-3.592828-25.194822-9.366322-35.933397-0.154519-0.675382-0.232291-1.38965-0.38681-2.047636l-0.733711 0c-13.113669-22.635533-37.256532-38.048571-65.22349-38.048571-2.799766 0-5.350868-0.211824-8.073886 0.097214-3.554966-0.696872-7.204076-0.097214-10.970866-0.097214L203.214796-108.738307c-3.765767 0-7.416923-0.599657-10.969842 0.097214-2.723018-0.309038-5.273097-0.097214-8.073886-0.097214-27.966958 0-52.108798 15.413038-65.22349 38.048571l-0.733711 0c-0.154519 0.657986-0.232291 1.390673-0.385786 2.047636-5.77554 10.738575-9.367345 22.858614-9.367345 35.933397 0 5.436826-1.447978 10.720156-0.366344 15.8285-0.733711 8.990768 0.366344 17.923208 0.366344 27.116591 0 189.94405 150.533458 343.915817 336.218508 343.915817l197.775412 0c185.68505 0 336.219531-153.971767 336.219531-343.915817 0-9.193383 1.100054-18.125823 0.347924-27.116591C980.101699-21.988548 978.673164-27.270854 978.673164-32.708703zM543.567461 374.586606c-136.530536 0-247.219521 113.179712-247.219521 252.78119 0 139.611711 110.688985 252.782214 247.219521 252.782214s247.219521-113.170502 247.219521-252.782214C790.785959 487.766318 680.096974 374.586606 543.567461 374.586606z"  horiz-adv-x="1024" />

    
    <glyph glyph-name="yuyin" unicode="&#58902;" d="M719.36301 872.606081c-269.890139 0-488.520074-218.629934-488.520074-488.520074s218.629934-488.520074 488.520074-488.520074 488.520074 218.629934 488.520074 488.520074S989.25315 872.606081 719.36301 872.606081zM719.36301-60.054426c-245.292122 0-444.140433 198.676298-444.140433 444.140433S473.898875 828.054426 719.36301 828.054426s444.140433-198.848312 444.140433-444.140433S964.655132-60.054426 719.36301-60.054426zM751.873677 657.588443l-2.236183-2.752226c-11.69696-13.761129-10.664875-34.058794 1.892155-46.787838 60.892995-61.237023 98.564085-145.867966 98.564085-239.271628 0-92.027549-36.639006-175.282379-95.983874-236.519402-12.385016-12.729044-13.245087-32.854695-1.892155-46.44381 13.073072-15.653284 36.81102-16.513355 50.916177-2.064169 72.761969 73.966068 117.485637 175.454393 117.485637 287.435579 0 112.325214-45.067697 213.985554-118.173694 288.123635C788.512683 673.929783 764.94675 672.897699 751.873677 657.588443zM690.636654 537.694608c-12.040988 16.341341-35.778935 18.233496-50.22812 4.128339l-0.688056-0.688056c-12.040988-11.69696-13.589115-30.446498-3.78431-44.035612 26.834201-36.639006 42.831514-81.706703 42.831514-130.55871 0-45.239711-13.589115-87.383168-36.983034-122.302033-9.288762-14.105157-6.70855-33.026709 6.192508-44.035612 15.137242-12.901058 38.359147-9.804804 49.540064 6.70855 30.790526 45.927768 48.852007 101.144297 48.852007 160.489165C746.369226 431.217873 725.727532 490.046699 690.636654 537.694608zM586.052075 412.124307c-9.116748 12.213002-24.25399 19.781623-39.391231 19.781623s-30.274483-7.568621-39.391231-19.781623-12.040988-28.898371-7.740635-43.347556c-4.300353-14.621199-1.376113-31.134554 7.740635-43.347556 9.116748-12.213002 24.25399-19.781623 39.391231-19.781623s30.274483 7.568621 39.391231 19.781623c9.116748 12.213002 12.040988 28.898371 7.740635 43.347556C598.093062 383.225937 595.168822 399.911305 586.052075 412.124307z"  horiz-adv-x="1449" />

    
    <glyph glyph-name="puhuoche" unicode="&#59057;" d="M663.083997 284.18773699999997l0 1.462305 18.042935 0L681.126932 638.813476c0 0.917906 0.340761 1.75804 0.533143 2.64013l0 54.561663c0 10.278087-8.330736 18.60166-18.576077 18.60166L81.331353 714.61693c-10.247388 0-18.541285-8.323573-18.541285-18.59245l0-410.375461 18.541285 0 0-1.462305L663.083997 284.18671300000005zM888.697431 188.12077399999998c-10.588149 27.591405-33.256428 49.275263-61.547775 58.299801-9.339716 2.975774-19.265786 4.620227-29.588899 4.620227-10.283204 0-20.209274-1.645476-29.569456-4.620227-28.291346-9.025561-50.961672-30.708396-61.545728-58.299801L706.443527 188.12077399999998c-2.275833-5.962805-3.984754-12.183484-5.055133-18.62008-0.903579-5.313006-1.473561-10.754948-1.473561-16.302291 0-0.776689 0.105401-1.529843 0.105401-2.273786 1.248434-52.910047 44.445258-95.609545 97.540524-95.609545 53.095265 0 96.310509 42.699498 97.540524 95.609545 0.016373 0.743944 0.107447 1.497097 0.107447 2.273786 0 5.554506-0.567935 10.989285-1.457188 16.302291C892.662743 175.93729099999996 890.971218 182.15796899999998 888.697431 188.12077399999998zM838.237179 150.924617c-1.210571-21.544689-18.897396-38.712697-40.672328-38.712697-21.781072 0-39.451524 17.168008-40.676421 38.712697-0.037862 0.751107-0.215918 1.478677-0.210801 2.273786 0 5.779633 1.246387 11.266601 3.437286 16.302291 3.39533 7.779174 9.15859 14.190187 16.33299 18.62008 6.189979 3.745301 13.380752 6.064113 21.116947 6.064113 7.753591 0 14.945387-2.318812 21.116947-6.064113 7.206122-4.430916 12.986779-10.841929 16.367783-18.62008 2.189875-5.03569 3.435239-10.522658 3.435239-16.302291C838.485843 152.40227100000004 838.307787 151.67470100000003 838.237179 150.924617zM953.9639 277.341818L953.9639 416.29145c0 107.48092-70.746274 163.046447-73.776284 165.348885-3.247974 2.498914-7.199982 3.841491-11.273764 3.841491L719.650317 585.4818270000001c-5.500271 0-10.374278-2.440585-13.772678-6.265704l0-305.97367c0-3.175319-1.297552-6.040576-3.257184-8.211009l-1.527796 0c0-0.424672 0.105401-0.814552 0.124843-1.246387-2.119267-1.747807-4.754281-2.926656-7.706519-2.926656L338.931293 260.85840199999996c7.438413-4.099365 14.377452-8.962116 20.764929-14.43885 17.754363-15.184841 31.153534-35.344996 37.956474-58.299801 1.799996-6.030343 3.046383-12.261255 3.897773-18.62008 0.734734-5.354961 1.232061-10.773368 1.232061-16.302291 0-0.776689-0.094144-1.529843-0.12689-2.273786L675.263387 150.92359399999998c-0.016373 0.743944-0.103354 1.497097-0.103354 2.273786 0 5.528923 0.49528 10.954493 1.226944 16.302291 0.835018 6.359848 2.099824 12.589736 3.897773 18.62008 6.833639 22.961968 20.214391 43.11496 37.968753 58.306964l1.391696 0c-0.410346 0-0.821715 0.105401-1.264806 0.138146 8.771781 7.450692 18.576077 13.687744 29.196972 18.472723 7.955182 3.564175 16.302291 6.378268 25.038256 8.203846 8.042163 1.713015 16.405645 2.595105 24.945135 2.595105 8.56098 0 16.910135-0.88209 24.947182-2.595105 8.755408-1.825578 17.118889-4.63967 25.036209-8.203846 10.69355-4.810562 20.552082-11.099802 29.337165-18.61087 17.759479-15.192004 31.142278-35.344996 37.9708-58.306964 1.77646-6.030343 3.043313-12.261255 3.8814-18.62008 0.74906-5.354961 1.224898-10.764158 1.224898-16.302291 0-0.776689-0.089028-1.52268-0.119727-2.273786l20.319791 0c10.245342 0 18.554588 8.305153 18.554588 18.576077l0 95.538937C958.714088 269.765259 956.846554 274.05495900000005 953.9639 277.341818zM738.206952 439.45501L738.206952 548.284647l123.834376 0c12.352329-11.352559 46.172599-47.780213 53.362348-108.829638L738.206952 439.45501zM371.514385 188.12077399999998c-10.586103 27.591405-33.254382 49.275263-61.545728 58.299801-9.341762 2.975774-19.254529 4.620227-29.572526 4.620227-10.320043 0-20.247136-1.645476-29.570479-4.620227-28.293393-9.025561-50.966789-30.708396-61.547775-58.299801-2.26253-5.962805-3.968381-12.183484-5.0449-18.62008-0.912789-5.313006-1.480724-10.754948-1.480724-16.302291 0-0.776689 0.086981-1.529843 0.105401-2.273786 1.246387-52.910047 44.445258-95.609545 97.54257-95.609545 53.092195 0 96.310509 42.699498 97.538477 95.609545 0.016373 0.743944 0.105401 1.497097 0.105401 2.273786 0 5.554506-0.551562 10.989285-1.475608 16.302291C375.49914 175.93729099999996 373.791242 182.15796899999998 371.514385 188.12077399999998zM321.073576 150.924617c-1.210571-21.544689-18.895349-38.712697-40.676421-38.712697-21.7647 0-39.46585 17.168008-40.676421 38.712697l-0.002047 0c-0.032746 0.751107-0.232291 1.478677-0.223081 2.273786 0 5.779633 1.243317 11.266601 3.435239 16.302291 3.374864 7.779174 9.16166 14.190187 16.365736 18.62008 6.195096 3.745301 13.344936 6.064113 21.100574 6.064113 7.757684 0 14.926968-2.318812 21.120017-6.064113 7.189749-4.430916 12.95301-10.841929 16.35141-18.62008 2.173502-5.03569 3.416819-10.522658 3.416819-16.302291C321.284377 152.40227100000004 321.108369 151.67470100000003 321.073576 150.924617zM201.11139 246.42057499999999c6.382361 5.476735 13.305027 10.339486 20.74651 14.43885 2.771113 1.542122 5.655813 2.856048 8.53949 4.179183 0.426719 0.157589 0.800225 0.382717 1.208525 0.553609l-0.002047 0L100.493785 265.592216c0-0.181125-0.054235-0.38067-0.054235-0.553609l0-95.538937c0-10.270924 8.28878-18.576077 18.538215-18.576077l39.144532 0c0 0.743944-0.124843 1.497097-0.124843 2.273786 0 5.538133 0.5137 10.954493 1.226944 16.302291 0.851391 6.359848 2.102894 12.589736 3.914146 18.62008C169.954787 211.08274200000005 183.335539 231.23573399999998 201.11139 246.42057499999999z"  horiz-adv-x="1024" />

    
    <glyph glyph-name="del" unicode="&#58986;" d="M743.122915 128.82632c0-36.465516-29.560246-66.060555-66.026786-66.060555L368.909048 62.765765c-36.431747 0-66.026786 29.594015-66.026786 66.060555l0 398.22984-44.01547 0 0-440.206884c0-36.464493 29.559223-66.026786 66.024739-66.026786l396.188344 0c36.465516 0 66.059532 29.562293 66.059532 66.026786L787.139407 527.057183l-44.017516 0L743.121891 128.82632zM456.976826 174.884308 456.976826 461.030397c0 12.144598-9.830903 22.00927-22.008246 22.00927-12.17939 0-22.00927-9.864672-22.00927-22.00927l0-286.146089c0-12.143575 9.829879-22.008246 22.00927-22.008246C447.145923 152.877085 456.976826 162.741757 456.976826 174.884308zM853.16517 615.124961 743.122915 615.124961l0 88.034009c0 24.320918-19.729344 44.017516-44.052309 44.017516L346.933547 747.176486c-24.320918 0-44.050262-19.695574-44.050262-44.017516l0-88.034009L170.83176 615.124961c-12.143575 0-22.008246-9.864672-22.008246-22.008246 0-12.17939 9.864672-22.044062 22.008246-22.044062l176.101787 0 352.137059 0L853.16517 571.072653c12.144598 0 22.010293 9.864672 22.010293 22.044062C875.176486 605.26029 865.309768 615.124961 853.16517 615.124961zM699.071629 615.124961 346.933547 615.124961 346.933547 659.142477c0 24.288173 19.695574 44.017516 44.018539 44.017516l264.10305 0c24.320918 0 44.01547-19.729344 44.01547-44.017516L699.070606 615.124961zM633.045867 174.884308 633.045867 461.030397c0 12.144598-9.830903 22.00927-22.008246 22.00927-12.144598 0-22.00927-9.864672-22.00927-22.00927l0-286.146089c0-12.143575 9.864672-22.008246 22.00927-22.008246C623.214964 152.877085 633.045867 162.741757 633.045867 174.884308z"  horiz-adv-x="1024" />

    
    <glyph glyph-name="dianhua" unicode="&#59392;" d="M711.706818 190.437272C700.979318 193.362955 689.718864 194.933182 678.065454 194.933182 630.882272 194.933182 589.650682 169.424546 567.377955 131.392272 560.179091 119.155 547.706363 110.807501 533.52341 109.88 527.571818 109.487045 521.585227 109.308864 515.562045 109.308864 376.223864 109.308864 260.903637 211.986136 240.769091 345.845227 238.202955 363.041363 246.327728 379.987728 261.15341 388.977955 298.285227 411.454318 323.124091 452.269091 323.124091 498.898637 323.124091 524.050909 315.890227 547.489773 303.417499 567.290227 280.680227 603.359318 240.554318 627.334318 194.833182 627.334318 126.268182 627.334318 70.284091 573.497955 66.720455 505.747501 66.613864 503.464546 66.542273 501.18159 66.542273 498.897045 66.542273 492.367955 67.040227 485.982045 67.967727 479.739318 88.78 177.094318 340.549318-61.939773 648.127728-61.939773 654.935227-61.939773 661.741136-61.79659 668.477045-61.546818 671.649318-61.79659 674.82-61.939773 678.063864-61.939773 687.114546-61.939773 695.917045-61.012272 704.398182-59.228864 762.628637-47.063182 806.353182 4.596818 806.353182 66.495909 806.356363 125.754091 766.230454 175.630682 711.706818 190.437272L711.706818 190.437272ZM665.241136 287.737272C645.566363 287.737272 629.604773 303.698864 629.604773 323.373637 629.604773 421.744318 549.677501 501.787728 451.422955 501.787728 431.748182 501.787728 415.78659 517.749318 415.78659 537.424091 415.78659 557.098864 431.748182 573.060454 451.422955 573.060454 588.980909 573.060454 700.877501 461.047728 700.877501 323.373637 700.877501 303.698864 684.915909 287.737272 665.241136 287.737272L665.241136 287.737272ZM793.517728 309.128637C773.842955 309.128637 757.881363 325.090227 757.881363 344.765 757.881363 502.15841 629.999318 630.22659 472.790454 630.22659 453.115682 630.22659 437.154091 646.188182 437.154091 665.862955 437.154091 685.537728 453.115682 701.499318 472.790454 701.499318 669.301136 701.499318 829.154091 541.460227 829.154091 344.765 829.154091 325.090227 813.192499 309.128637 793.517728 309.128637L793.517728 309.128637ZM921.818182 330.542272C902.14341 330.542272 886.181818 346.503864 886.181818 366.178637 886.181818 582.594773 710.319546 758.665455 494.181818 758.665455 474.507045 758.665455 458.545454 774.627045 458.545454 794.301818 458.545454 813.976591 474.507045 829.938182 494.181818 829.938182 749.621363 829.938182 957.454546 621.89659 957.454546 366.178637 957.454546 346.503864 941.492955 330.542272 921.818182 330.542272L921.818182 330.542272Z"  horiz-adv-x="1024" />

    
    <glyph glyph-name="save" unicode="&#59207;" d="M682.656 554.656V781.344H114.656v-226.688h568zM512-13.344c46.208 0 86.208 16.896 120 50.688 33.792 33.76 50.656 73.76 50.656 120 0 46.208-16.864 86.208-50.656 120-33.792 33.76-73.792 50.656-120 50.656s-86.208-16.896-120-50.656c-33.792-33.792-50.656-73.792-50.656-120 0-46.24 16.864-86.24 50.656-120 33.792-33.792 73.792-50.688 120-50.688zM797.344 896L1024 669.344v-682.688c0-30.208-11.552-56.864-34.656-80-23.136-23.104-49.792-34.656-80-34.656H114.656c-32 0-59.104 11.552-81.312 34.656C11.104-70.208 0-43.52 0-13.344V781.344c0 30.208 11.104 56.864 33.344 80C55.552 884.448 82.656 896 114.656 896h682.688z"  horiz-adv-x="1024" />

    
    <glyph glyph-name="cir-umbrella" unicode="&#58927;" d="M512 896c-282.778 0-512-229.222-512-512s229.222-512 512-512 512 229.222 512 512-229.222 512-512 512zM512-76.8c-254.49 0-460.8 206.31-460.8 460.8s206.31 460.8 460.8 460.8 460.8-206.31 460.8-460.8-206.31-460.8-460.8-460.8zM486.4 128c0-14.131-11.469-25.6-25.6-25.6s-25.6 11.469-25.6 25.6c0 14.157-11.469 25.6-25.6 25.6s-25.6-11.443-25.6-25.6c0-42.419 34.381-76.8 76.8-76.8s76.8 34.381 76.8 76.8v230.4h-51.2l0-230.4zM537.6 664.294v26.906c0 14.157-11.443 25.6-25.6 25.6-14.131 0-25.6-11.443-25.6-25.6v-26.906c-171.802-13.107-307.2-156.339-307.2-331.494h51.2c0 42.419 34.381 76.8 76.8 76.8s76.8-34.381 76.8-76.8h51.2c0 42.419 34.381 76.8 76.8 76.8 42.394 0 76.8-34.381 76.8-76.8h51.2c0 42.419 34.406 76.8 76.8 76.8s76.8-34.381 76.8-76.8h51.2c0 175.155-135.398 318.387-307.2 331.494zM716.8 460.8c-42.061 0-79.053-20.582-102.4-51.891-23.347 31.309-60.339 51.891-102.4 51.891-42.061 0-79.053-20.582-102.4-51.891-23.347 31.309-60.339 51.891-102.4 51.891-18.125 0-35.328-3.866-50.944-10.675 44.518 96.87 142.157 164.275 255.744 164.275s211.226-67.405 255.744-164.275c-15.616 6.81-32.819 10.675-50.944 10.675z"  horiz-adv-x="1024" />

    
    <glyph glyph-name="mima" unicode="&#59081;" d="M868.864 519.68 210.432 519.68c-1.536 129.536 77.824 267.776 241.152 307.712 112.64 25.6 233.984-18.432 306.688-109.056 8.192-11.776 32.256-20.48 52.224-6.144 22.016 20.992 3.072 44.544-2.048 49.664-91.136 100.864-229.376 151.552-368.64 120.32C263.68 842.752 143.36 691.2 139.264 515.584c-35.328-12.288-71.168-50.688-71.168-84.48l0-471.04c0-40.96 53.248-83.456 94.208-83.456l705.024 0c40.96 0 91.136 43.52 91.136 84.48L958.464 434.176C957.952 475.136 919.552 519.68 868.864 519.68zM901.632 0.512c0-40.96-26.112-67.072-67.072-67.072L191.488-66.56c-40.96 0-67.072 26.112-67.072 67.072l0.512 395.776c0 40.96 26.112 67.072 67.072 67.072L834.56 463.36c40.96 0 67.072-26.112 67.072-67.072L901.632 0.512zM525.312 346.624c-47.616 0-86.528-38.912-86.528-86.528 0-34.304 20.48-64 49.664-77.824L488.448 87.04c0-20.48 16.384-36.864 36.864-36.864s36.864 16.384 36.864 36.864l0 95.232c29.184 13.824 49.664 43.52 49.664 77.824C611.84 307.712 572.928 346.624 525.312 346.624zM845.312 583.168c19.456 0 35.328 15.872 35.328 35.328s-15.872 35.328-35.328 35.328c-19.456 0-35.328-15.872-35.328-35.328S825.856 583.168 845.312 583.168z"  horiz-adv-x="1024" />

    
    <glyph glyph-name="jia" unicode="&#58971;" d="M821.12 88.96000000000004h-606.72v608h606.72v-608z m-574.72 32h542.72v544h-542.72v-544zM701.44 377.6h-368c-8.96 0-16 7.04-16 16s7.04 16 16 16h368c8.96 0 16-7.04 16-16S710.4 377.6 701.44 377.6zM517.76 200.32000000000005c-8.96 0-16 7.04-16 16v353.92c0 8.96 7.04 16 16 16s16-7.04 16-16v-353.92c0-8.32-7.04-16-16-16z"  horiz-adv-x="1024" />

    
    <glyph glyph-name="lurudingdan" unicode="&#58987;" d="M776.372691 153.467533c0-63.517639-28.493961-103.510492-92.012623-103.510492H258.814092c-63.518662 0-103.510492 39.992853-103.510492 103.510492V556.012655c0 63.521732 39.99183 103.510492 103.510492 103.510492h345.037361V694.026986H235.813239c-63.517639 0-115.0145-51.490721-115.014501-115.011431v-448.549899c0-63.516616 51.496861-115.013477 115.014501-115.013477h460.052884c63.513546 0 115.009384 51.495838 115.009383 115.013477V371.990478h-34.501791v-218.522945z m94.886068 577.760726c-28.788673 28.795836-77.519538 26.742061-108.847034-4.584412L423.660534 387.89675 362.346073 222.32376l165.580153 61.303205L866.67537 622.375086c31.325449 31.325449 33.380248 80.0645 4.583389 108.853173zM505.586428 311.648159l-85.743849-31.747052 31.752168 85.751013 338.492294 338.489224 54.000891-53.995775L505.586428 311.648159z"  horiz-adv-x="1024" />

    
    <glyph glyph-name="fapiao" unicode="&#59178;" d="M339.647142 411.099506c-9.394495 0-18.788991 5.781228-23.124912 15.175723l-25.292872 56.366973c-5.781228 13.007763 0 27.460833 13.007763 33.242061 13.007763 5.781228 27.460833 0 33.24206-13.007763l25.292873-56.366973c5.781228-13.007763 0-27.460833-13.007763-33.242061-2.890614-1.445307-6.503881-2.16796-10.117149-2.16796zM427.810868 411.099506c-3.613267 0-7.226535 0.722653-10.117149 2.16796-13.007763 5.781228-18.788991 20.234298-13.007763 33.242061l25.292873 56.366973c5.781228 13.007763 20.234298 18.788991 33.24206 13.007763 13.007763-5.781228 18.788991-20.234298 13.007763-33.242061l-25.292872-56.366973c-4.335921-9.394495-13.730416-15.175723-23.124912-15.175723zM491.404375 398.091743h-225.467889c-13.730416 0-25.292872 11.562456-25.292873 25.292872s11.562456 25.292872 25.292873 25.292873h225.467889c13.730416 0 25.292872-11.562456 25.292873-25.292873s-11.562456-25.292872-25.292873-25.292872zM491.404375 288.248412h-225.467889c-13.730416 0-25.292872 11.562456-25.292873 25.292872s11.562456 25.292872 25.292873 25.292873h225.467889c13.730416 0 25.292872-11.562456 25.292873-25.292873s-11.562456-25.292872-25.292873-25.292872zM378.67043 195.026112c-13.730416 0-25.292872 11.562456-25.292872 25.292872v202.342978c0 13.730416 11.562456 25.292872 25.292872 25.292872s25.292872-11.562456 25.292873-25.292872v-202.342978c0-13.730416-11.562456-25.292872-25.292873-25.292872zM760.954128 69.284404m-28.183486 0a28.183486 28.183486 0 1 1 56.366973 0 28.183486 28.183486 0 1 1-56.366973 0ZM872.242766 69.284404m-28.183486 0a28.183486 28.183486 0 1 1 56.366973 0 28.183486 28.183486 0 1 1-56.366973 0ZM875.856034 182.741002m-28.183486 0a28.183486 28.183486 0 1 1 56.366972 0 28.183486 28.183486 0 1 1-56.366972 0ZM776.852505 395.923783h-154.647847c-13.730416 0-25.292872 11.562456-25.292873 25.292872s11.562456 25.292872 25.292873 25.292872h154.647847c13.730416 0 25.292872-11.562456 25.292873-25.292872s-10.839802-25.292872-25.292873-25.292872zM726.266761 287.525759h-104.062103c-13.730416 0-25.292872 11.562456-25.292873 25.292872s11.562456 25.292872 25.292873 25.292872h104.062103c13.730416 0 25.292872-11.562456 25.292872-25.292872s-10.839802-25.292872-25.292872-25.292872zM667.009174 42.546224h-459.607621c-45.52717 0-83.105152 37.577982-83.105152 83.105152v516.697248c0 45.52717 37.577982 83.105152 83.105152 83.105152h41.191249c11.562456 0 22.402258-7.949188 24.570218-19.511645 4.335921-17.343684 19.511644-29.628793 37.577982-29.628793s33.242061 12.285109 37.577982 29.628793c2.890614 11.562456 13.007763 19.511644 24.570219 19.511645h86.718419c11.562456 0 22.402258-7.949188 24.570219-19.511645 4.335921-17.343684 19.511644-29.628793 37.577981-29.628793s33.242061 12.285109 37.577982 29.628793c2.890614 11.562456 13.007763 19.511644 24.570219 19.511645h79.491884c11.562456 0 22.402258-7.949188 24.570219-19.511645 4.335921-17.343684 19.511644-29.628793 37.577981-29.628793s33.242061 12.285109 37.577982 29.628793c2.890614 11.562456 13.007763 19.511644 24.570219 19.511645h31.0741c45.52717 0 83.105152-37.577982 83.105152-83.105152v-356.990826c0-13.730416-11.562456-25.292872-25.292873-25.292872s-25.292872 11.562456-25.292872 25.292872v356.990826c0 18.066337-14.45307 32.519407-32.519407 32.519407h-13.730416c-14.45307-29.628793-44.804517-49.863091-79.491885-49.863091s-65.038814 19.511644-79.491884 49.863091h-44.081863c-14.45307-29.628793-44.804517-49.863091-79.491884-49.863091s-65.038814 19.511644-79.491885 49.863091h-51.308398c-14.45307-29.628793-44.804517-49.863091-79.491884-49.863091s-65.038814 19.511644-79.491884 49.863091h-23.847565c-18.066337 0-32.519407-14.45307-32.519408-32.519407v-516.697248c0-18.066337 14.45307-32.519407 32.519408-32.519407h459.607621c13.730416 0 25.292872-11.562456 25.292873-25.292872s-13.007763-25.292872-26.73818-25.292873z"  horiz-adv-x="1024" />

    
    <glyph glyph-name="danxuan" unicode="&#58920;" d="M512 156.444444C637.675463 156.444444 739.555556 258.324537 739.555556 384 739.555556 509.675463 637.675463 611.555556 512 611.555556 386.324537 611.555556 284.444444 509.675463 284.444444 384 284.444444 258.324537 386.324537 156.444444 512 156.444444ZM512-99.555556C779.060361-99.555556 995.555556 116.939639 995.555556 384 995.555556 651.060359 779.060361 867.555556 512 867.555556 244.939639 867.555556 28.444444 651.060359 28.444444 384 28.444444 116.939639 244.939639-99.555556 512-99.555556L512-99.555556ZM512-42.666667C276.358508-42.666667 85.333333 148.358508 85.333333 384 85.333333 619.641493 276.358508 810.666667 512 810.666667 747.641492 810.666667 938.666667 619.641493 938.666667 384 938.666667 148.358508 747.641492-42.666667 512-42.666667L512-42.666667Z"  horiz-adv-x="1024" />

    
    <glyph glyph-name="full-screen" unicode="&#58955;" d="M972.648448 647.241426h-40.932248V804.067194H771.680321v40.932248h200.968127zM924.667667 835.644377l29.270651-28.611641-280.459577-286.918685-29.269627 28.611641zM99.073436 637.570159h-40.932248V835.328175h200.968128v-40.932247H99.073436zM106.126063 825.959807l280.459576-286.918685-29.270651-28.611641L76.855412 797.348166zM975.898469-72.757838H774.929318v40.932248h160.036903V124.999155h40.932248zM676.726715 252.163369l280.458553-286.918685-29.27065-28.611641L647.457088 223.551728zM249.439072-79.21797H48.469921V118.540046h40.932248v-156.825768h160.036903zM347.654978 245.694027l29.27065-28.611641-280.458553-286.918685-29.27065 28.611641z"  horiz-adv-x="1024" />

    
    <glyph glyph-name="wechat1" unicode="&#58882;" d="M290.58 602.561c-22.118 0-44.442-14.619-44.442-36.814 0-22.145 22.323-36.942 44.442-36.942 22.121 0 36.843 14.797 36.843 36.942-0.002 22.196-14.722 36.814-36.843 36.814zM593.115 388.482c-14.695 0-29.518-14.797-29.518-29.521 0-14.927 14.821-29.515 29.518-29.515 22.323 0 36.944 14.592 36.944 29.515 0 14.724-14.621 29.521-36.944 29.521zM1002.166 733.674c0 83.479-67.659 151.139-151.139 151.139h-690.483c-83.479 0-151.139-67.66-151.139-151.139v-690.483c0-83.481 67.66-151.139 151.139-151.139h690.484c83.481 0 151.139 67.659 151.139 151.139v690.483zM386.46 225.939c-36.843 0-66.462 7.529-103.379 14.821l-103.174-51.743 29.516 88.785c-73.885 51.639-118.099 118.177-118.099 199.255 0 140.425 132.897 250.998 295.135 250.998 145.118 0 272.25-88.352 297.787-207.269-9.387 1.045-18.853 1.734-28.42 1.734-140.193 0-250.919-104.628-250.919-233.574 0-21.455 3.342-42.119 9.108-61.842-9.108-0.713-18.292-1.171-27.553-1.171zM821.815 122.559l22.196-73.758-80.955 44.342c-29.515-7.397-59.164-14.821-88.554-14.821-140.425 0-251.023 95.981-251.023 214.181 0 117.999 110.599 214.182 251.023 214.182 132.614 0 250.691-96.185 250.691-214.181 0-66.563-44.139-125.502-103.378-169.945zM755.455 388.482c-14.595 0-29.315-14.797-29.315-29.521 0-14.927 14.719-29.515 29.315-29.515 22.118 0 36.945 14.592 36.945 29.515 0 14.724-14.827 29.521-36.947 29.521zM497.133 528.804c22.223 0 36.945 14.797 36.945 36.942 0 22.196-14.721 36.814-36.947 36.814-22.116 0-44.315-14.619-44.315-36.814 0-22.145 22.198-36.942 44.316-36.942z"  horiz-adv-x="1024" />

    
    <glyph glyph-name="weixin" unicode="&#58889;" d="M270.496 551.497c0-20.819 16.877-37.697 37.697-37.697s37.697 16.877 37.697 37.697c0 0 0 0 0 0 0 20.819-16.877 37.697-37.697 37.697-20.819 0-37.697-16.877-37.697-37.697 0-0 0-0 0-0zM564.093 356.558c0-16.298 13.212-29.51 29.51-29.51s29.51 13.212 29.51 29.51c0 16.298-13.212 29.51-29.51 29.51-16.298 0-29.51-13.212-29.51-29.51zM462.786 551.497c0-20.819 16.877-37.697 37.697-37.697s37.697 16.877 37.697 37.697c0 0 0 0 0 0 0 20.819-16.877 37.697-37.697 37.697-20.819 0-37.697-16.877-37.697-37.697 0-0 0-0 0-0zM813.979 834.391h-604.984c-80.099 0-145.035-65.148-145.035-145.512l0-604.231c0-80.364 64.936-145.512 145.035-145.512h604.984c80.1 0 145.035 65.148 145.035 145.512v604.23c0.001 80.365-64.934 145.513-145.035 145.513zM399.842 234.599c-33.871 0-61.109 6.919-95.052 13.624l-94.859-47.563 27.138 81.628c-67.935 47.481-108.585 108.656-108.585 183.207 0 129.113 122.189 230.775 271.358 230.775 133.428 0 250.314-81.236 273.796-190.57-8.634 0.965-17.335 1.594-26.129 1.594-128.901 0-230.705-96.199-230.705-214.751 0-19.731 3.071-38.733 8.374-56.861-8.374-0.659-16.819-1.083-25.335-1.083zM800.124 139.546l20.411-67.816-74.436 40.771c-27.139-6.803-54.399-13.626-81.422-13.626-129.108 0-230.798 88.248-230.798 196.924 0 108.495 101.689 196.929 230.798 196.929 121.937 0 230.497-88.434 230.497-196.929 0-61.2-40.581-115.39-95.049-156.253zM711.961 356.558c0-16.298 13.212-29.51 29.51-29.51s29.51 13.212 29.51 29.51c0 16.298-13.212 29.51-29.51 29.51-16.298 0-29.51-13.212-29.51-29.51z"  horiz-adv-x="1024" />

    
    <glyph glyph-name="loading" unicode="&#58908;" d="M843.307 153.76c0-3.217 2.607-5.824 5.824-5.824s5.824 2.607 5.824 5.824a5.823 5.823 0 0 1-5.824 5.824 5.823 5.823 0 0 1-5.824-5.824zM714.731 21.088c0-6.398 5.186-11.584 11.584-11.584s11.584 5.186 11.584 11.584-5.186 11.584-11.584 11.584-11.584-5.186-11.584-11.584zM541.419-47.2c0-9.614 7.794-17.408 17.408-17.408s17.408 7.794 17.408 17.408-7.794 17.408-17.408 17.408-17.408-7.794-17.408-17.408z m-186.56 9.152c0-12.795 10.373-23.168 23.168-23.168s23.168 10.373 23.168 23.168-10.373 23.168-23.168 23.168-23.168-10.373-23.168-23.168zM189.355 46.88c0-16.012 12.98-28.992 28.992-28.992s28.992 12.98 28.992 28.992-12.98 28.992-28.992 28.992-28.992-12.98-28.992-28.992zM74.731 191.264c0-19.228 15.588-34.816 34.816-34.816s34.816 15.588 34.816 34.816-15.588 34.816-34.816 34.816-34.816-15.588-34.816-34.816z m-43.008 177.28c0-22.41 18.166-40.576 40.576-40.576s40.576 18.166 40.576 40.576-18.166 40.576-40.576 40.576-40.576-18.166-40.576-40.576z m35.392 176.128c0-25.626 20.774-46.4 46.4-46.4s46.4 20.774 46.4 46.4c0 25.626-20.774 46.4-46.4 46.4-25.626 0-46.4-20.774-46.4-46.4z m106.176 142.016c0-28.843 23.381-52.224 52.224-52.224s52.224 23.381 52.224 52.224c0 28.843-23.381 52.224-52.224 52.224-28.843 0-52.224-23.381-52.224-52.224z m155.904 81.344c0-32.024 25.96-57.984 57.984-57.984s57.984 25.96 57.984 57.984-25.96 57.984-57.984 57.984-57.984-25.96-57.984-57.984z m175.104 5.056c0-35.24 28.568-63.808 63.808-63.808s63.808 28.568 63.808 63.808c0 35.24-28.568 63.808-63.808 63.808-35.24 0-63.808-28.568-63.808-63.808z m160.32-72.128c0-38.421 31.147-69.568 69.568-69.568s69.568 31.147 69.568 69.568-31.147 69.568-69.568 69.568-69.568-31.147-69.568-69.568z m113.92-135.488c0-41.638 33.754-75.392 75.392-75.392s75.392 33.754 75.392 75.392-33.754 75.392-75.392 75.392-75.392-33.754-75.392-75.392z m45.312-175.488c0-44.854 36.362-81.216 81.216-81.216s81.216 36.362 81.216 81.216c0 44.854-36.362 81.216-81.216 81.216-44.854 0-81.216-36.362-81.216-81.216z"  horiz-adv-x="1024" />

    
    <glyph glyph-name="fanhuidingbu" unicode="&#58932;" d="M752.736 464.937C757.159 755.425 520.41 887.03 504.518 895.59V896l-0.45-0.205-0.41 0.205v-0.41c-15.934-8.56-252.723-140.165-248.259-430.653-48.21-31.457-98.713-87.368-90.685-184.074 8.028-96.666 101.007-160.768 136.601-157.287 35.595 3.482 25.232 30.31 25.232 30.31l12.206 50.095s52.47-80.569 69.304-80.528c15.114 1.23 87 0.123 95.6 0h0.82c8.602 0.123 80.486 1.23 95.6 0 16.794 0 69.305 80.528 69.305 80.528l12.165-50.094s-10.322-26.83 25.272-30.31c35.595-3.482 128.574 60.62 136.602 157.286 8.028 96.665-42.475 152.617-90.685 184.074z m-248.669 4.26c-6.758 0.123-94.781 3.359-102.891 107.192 2.95 98.714 95.97 107.438 102.891 107.93 6.964-0.492 99.943-9.216 102.892-107.93-8.11-103.833-96.174-107.07-102.892-107.192z m-52.019-500.531c0-11.838-9.42-21.382-21.012-21.382a21.217 21.217 0 0 0-21.054 21.34V74.26c0 11.797 9.421 21.382 21.054 21.382 11.591 0 21.012-9.585 21.012-21.382v-105.635z m77.333-57.222a21.504 21.504 0 0 0-21.34-21.626 21.504 21.504 0 0 0-21.34 21.626V68.526c0 11.96 9.543 21.668 21.299 21.668 11.796 0 21.38-9.708 21.38-21.668v-157.082z m71.147 82.043c0-11.796-9.42-21.34-21.053-21.34a21.217 21.217 0 0 0-21.013 21.34v75.367c0 11.755 9.421 21.299 21.013 21.299 11.632 0 21.053-9.544 21.053-21.3v-75.366z"  horiz-adv-x="1024" />

    
    <glyph glyph-name="tip" unicode="&#58898;" d="M512-128c-282.77 0-512 229.23-512 512s229.23 512 512 512 512-229.23 512-512-229.23-512-512-512zM464.522 85.122h111.502v111.518h-111.502v-111.518zM580.397 666.868h-120.637v-136.501l28.965-295.237h63.098l28.574 295.237v136.501z"  horiz-adv-x="1024" />

    
    <glyph glyph-name="baoxian" unicode="&#59010;" d="M648.186 776.534C539.972 853.679 504.549 896 504.549 896s-38.497-69.386-143.635-119.466c-136.782-65.155-241.103-68.268-241.103-68.268v-495.032c0-114.873 165.736-158.045 293.317-251.17 60.85-44.416 91.421-90.064 91.421-90.064s27.205 43.504 84.517 85.042c127.218 92.196 300.221 139.224 300.221 256.192V708.266s-133.868-8.182-241.101 68.268zM837.989 234.82c-2.003-110.215-150.042-143.533-260.095-226.223-50.221-37.735-73.343-61.617-73.343-61.617s-26.332 25.776-79.903 66.086C313.672 96.57 171.11 126.543 171.11 234.821V657.557s136.974 26.272 239.763 80.747c63.002 33.39 93.675 80.75 93.675 80.75-0.132-0.204 16.983-16.335 107.058-80.75 98.249-70.259 226.382-80.747 226.382-80.747V234.82zM451.964 615.683v-12.997c0-11.572 0.703-25.99 2.147-43.318v-56.312c-1.444-8.664-2.147-18.072-2.147-28.159v-28.158h10.731c11.437 0 30.05 0.713 55.808 2.165H550.7v-58.478h-88.002c-42.927 0-64.39 1.421-64.39 4.33v-45.484c12.876 1.423 35.044 2.878 66.536 4.332h49.367c-35.786-66.431-83.709-112.628-143.807-138.618 22.872-12.996 38.635-24.535 47.22-34.655C474.84 223.65 519.208 278.51 550.7 344.941v-119.126c0-37.533-1.444-62.068-4.294-73.64h49.367c0 2.908-0.738 7.24-2.146 12.996-1.442 8.663-2.147 28.9-2.147 60.644V347.107C612.943 269.134 655.873 212.075 720.265 176c8.585 14.45 22.166 27.413 40.78 38.987-67.276 30.322-114.495 76.52-141.66 138.618h53.66a4745.717 4745.717 0 0 0 40.78-4.332c25.757-4.333 35.75-5.787 30.05-4.333V392.59c-17.172-1.454-40.783-2.164-70.83-2.164H591.48v58.478h42.93c8.584-1.452 31.456-2.165 68.683-2.165 0 1.424-0.739 7.921-2.146 19.494-1.442 17.328-2.147 31.746-2.147 43.318V552.87c0 21.66 1.411 42.575 4.295 62.813-17.172-2.912-38.635-4.333-64.393-4.333H507.768c-20.054 0-38.632 1.421-55.804 4.333zM655.87 574.53v-86.639H497.037v86.639H655.87zM366.109 227.982V505.22c28.608 56.314 44.337 85.894 47.22 88.805 1.409 2.875 5 5.751 10.734 8.661 4.292 2.878 7.14 5.754 8.585 8.664-5.736 7.208-24.35 16.584-55.808 28.158-40.077-118.418-83.003-198.556-128.783-240.42 11.438-14.448 20.727-29.612 27.904-45.484 4.295 7.208 12.14 19.493 23.61 36.822 11.435 18.75 20.724 33.198 27.904 43.318V227.98c0-38.99-1.444-64.236-4.294-75.81h47.22l-2.146 2.165c-2.883 8.667-3.588 33.239-2.146 73.647z"  horiz-adv-x="1024" />

    
    <glyph glyph-name="youxiang1" unicode="&#59008;" d="M887.37515 687.992098H137.1306c-37.425527 0-67.91505-30.489522-67.915049-67.91505V150.379454c0-37.425527 30.489522-67.91505 67.915049-67.91505h750.24455c37.425527 0 67.91505 30.489522 67.91505 67.91505V620.077048c0 37.425527-30.489522 67.91505-67.91505 67.91505zM650.683977 378.472871c88.578565 82.00381 228.310167 212.415156 273.46645 254.609186 1.445001-4.046003 2.239752-8.453256 2.239752-13.005009V150.379454c0-2.528752-0.289-5.057504-0.722501-7.514006L650.683977 378.472871z m236.691173 280.619205c6.358005 0 12.427009-1.517251 17.701263-4.262753-52.887039-49.346786-241.965427-225.781415-318.116983-295.791716-24.998518-22.975517-50.575037-33.957525-76.007056-32.729274-38.364778 1.950751-64.952798 31.356523-65.169547 31.573273l-0.578001 0.65025-328.01524 295.069216c5.852254 3.468003 12.643759 5.491004 19.868764 5.491004h750.3168zM99.705073 139.325196c-1.011501 3.468003-1.589501 7.225005-1.589501 10.982008V620.077048c0 3.684753 0.50575 7.225005 1.445001 10.548508L379.312778 378.906371l-279.607705-239.581175z m37.425527-28.033021c-7.080505 0-13.79976 1.950751-19.507514 5.274254L400.987794 359.398857l23.698017-21.313766c5.057504-5.491004 37.064277-38.075778 84.460312-40.676779 1.950751-0.07225 3.973753-0.1445 5.924504-0.144501 31.501023 0 62.279546 13.58301 91.468567 40.38778 6.719255 6.213505 14.377761 13.29401 22.758767 20.952515l280.474705-240.303676c-6.358005-4.479503-14.08876-7.080505-22.397516-7.080505H137.1306z"  horiz-adv-x="1024" />

    
    <glyph glyph-name="icon-weather-snowflake" unicode="&#59058;" d="M480.695-64h63.725V59.291000000000054l68.854-68.242 44.945 44.546-113.798 112.79v180.02l177.271-102.44 41.67-155.652 60.725 16.284-25.398 94.872 85.259-49.266 31.87 55.246-84.726 48.961 94.497 25.343-16.495 61.622-156.068-41.855-176.934 102.245 177.667 102.667 155.513-41.709 16.274 60.793-94.78 25.418 85.255 49.264-31.869 55.247-84.733-48.965 25.326 94.594-61.557 16.51-41.817-156.206-176.948-102.251V644.461l113.849 113.951-44.459 44.496-69.392-69.454V832h-63.725v-97.935l-69.188 69.249-45.068-45.107 114.256-114.355V438.89l-156.557 90.469L283.45 684.39l-60.188-16.458 24.84-94.632-107.544 62.145-31.868-55.247 106.667-61.639-93.463-25.557 16.074-61.237 154.482 42.243 156.169-90.243-156.138-90.226-154.485 42.243-15.855-60.409 94.289-25.784-107.534-62.14 31.868-55.247 106.672 61.642-24.621-93.801 61.012-16.685 40.69 155.028 156.179 90.25v-180.455l-113.801-112.79 44.338-43.944 69.463 68.845V-64z"  horiz-adv-x="1024" />

    
    <glyph glyph-name="huoche1" unicode="&#58890;" d="M452.128 156.704c0 18.528-7.616 36.896-20.736 50.016a71.584 71.584 0 0 1-50.048 20.704c-18.528 0-36.96-7.616-50.048-20.704-13.12-13.088-20.736-31.456-20.736-50.016s7.616-36.896 20.736-49.984a71.68 71.68 0 0 1 50.048-20.736c18.56 0 36.96 7.648 50.048 20.736a71.36 71.36 0 0 1 20.736 49.984zM945.248 156.704c0 18.528-7.584 36.896-20.704 50.016a71.68 71.68 0 0 1-50.08 20.704 71.68 71.68 0 0 1-50.048-20.704c-13.088-13.088-20.736-31.456-20.736-50.016s7.648-36.896 20.736-49.984c13.12-13.088 31.52-20.736 50.048-20.736a71.68 71.68 0 0 1 50.08 20.736 71.36 71.36 0 0 1 20.704 49.984zM279.584 162.176a104 104 0 0 0 48.992 88.256H192.16v-93.728h87.584a105.152 105.152 0 0 0-0.16 5.472zM163.872 345.344H0v-38.528h164.384a22.656 22.656 0 0 1 22.464-17.568h500c12.672 0 22.976 9.888 22.976 22.048V647.616a22.528 22.528 0 0 1-22.976 22.08H186.848c-12.672 0-22.976-9.888-22.976-22.08v-105.184H18.752v-52.288h145.12v-36H74.56v-74.56h89.312v-34.24zM440.8 250.432a102.848 102.848 0 0 0 50.496-88.48c0-1.792-0.064-3.488-0.128-5.248h280.832a103.68 103.68 0 0 0 22.88 70.72c7.296 8.992 16.064 16.8 25.952 23.008l2.112 1.312a104.032 104.032 0 0 0 99.264 3.84c2.432-1.216 4.8-2.464 7.136-3.84l2.08-1.312a103.68 103.68 0 0 0 48.864-93.728h43.488v98.88h-0.032v106.912s0.48 13.696 0 18.208c-1.6 16.256-11.2 74.336-46.336 124.576-45.696 65.344-79.488 76.8-79.488 76.8h-165.888V250.432h-291.232z m329.184 201.6v91.264h108.064l18.56-18.72 18.08-17.888 18.144-18.208 18.24-18.4v-72.864h-181.12v54.816h0.032z"  horiz-adv-x="1024" />

    
    <glyph glyph-name="yuan" unicode="&#58888;" d="M511.502985-127.99875099999997C230.17522-127.99875099999997 0 102.176468 0 383.49798999999996 0 664.825756 230.17522 895.000976 511.502985 895.000976 792.824507 895.000976 1022.999727 664.825756 1022.999727 383.49798999999996 1022.999727 102.176468 792.824507-127.99875099999997 511.502985-127.99875099999997L511.502985-127.99875099999997ZM511.502985 831.064663C262.146498 831.064663 63.936312 632.854478 63.936312 383.49798999999996 63.936312 134.14275099999998 262.146498-64.06243900000004 511.502985-64.06243900000004 760.858224-64.06243900000004 959.063415 134.14275099999998 959.063415 383.49798999999996 959.063415 632.854478 760.858224 831.064663 511.502985 831.064663L511.502985 831.064663Z"  horiz-adv-x="1024" />

    
    <glyph glyph-name="tel" unicode="&#58948;" d="M456.53 369.561c-71.475 71.43-139.791 154.183-107.033 186.896 46.792 46.838 87.583 75.671 4.65 178.913-82.936 103.239-138.256 23.959-183.65-21.434-52.298-52.344-2.752-247.454 190.101-440.349 192.856-192.809 388.009-242.443 440.349-190.059 45.394 45.351 124.628 100.625 21.437 183.603-103.195 82.983-132.074 42.19-178.914-4.645-32.758-32.624-115.468 35.646-186.94 107.075z"  horiz-adv-x="1024" />

    
    <glyph glyph-name="home" unicode="&#58931;" d="M92.16 389.12L512 814.08l419.84-419.84H92.16v-5.12z m732.16-455.68h-179.2v204.8c0 10.24-10.24 25.6-25.6 25.6h-204.8c-10.24 0-25.6-10.24-25.6-25.6v-204.8h-179.2v409.6h614.4v-409.6zM1018.88 384l-486.4 486.4c-10.24 10.24-30.72 10.24-35.84 0L10.24 384c-15.36-15.36-5.12-40.96 15.36-40.96h128v-435.2c0-10.24 10.24-25.6 25.6-25.6h235.52c10.24 0 25.6 10.24 25.6 25.6v204.8h153.6v-204.8c0-10.24 10.24-25.6 25.6-25.6h230.4c10.24 0 25.6 10.24 25.6 25.6v435.2h133.12c20.48-5.12 20.48 25.6 10.24 40.96z"  horiz-adv-x="1025" />

    
    <glyph glyph-name="huoche" unicode="&#58881;" d="M1012.316 767.746h-677.301c-11.932 0-21.628-9.758-21.628-21.793v-63.949c0.227-1.024 0.621-2.006 0.621-3.092v-413.857h21.006v-1.714h677.301v1.714h21.584v480.899c0.001 12.035-9.654 21.793-21.583 21.793zM284.531 150.762c-12.325 32.345-38.717 57.753-71.653 68.325-10.896 3.491-22.455 5.413-34.429 5.413-12.016 0-23.572-1.922-34.448-5.413-32.939-10.571-59.328-35.981-71.653-68.325-2.65-6.978-4.619-14.271-5.884-21.814-1.036-6.228-1.699-12.598-1.699-19.099 0-0.919 0.105-1.796 0.123-2.675 1.43-61.994 51.746-112.037 113.562-112.037s112.111 50.043 113.562 112.037c0 0.878 0.121 1.756 0.121 2.675 0 6.499-0.661 12.87-1.719 19.099-1.242 7.543-3.231 14.836-5.881 21.814zM225.804 107.175c-1.43-25.241-21.999-45.362-47.357-45.362s-45.947 20.123-47.357 45.362c-0.081 0.878-0.289 1.734-0.289 2.675 0 6.773 1.45 13.205 3.999 19.099 3.936 9.11 10.667 16.63 19.056 21.814 7.188 4.388 15.558 7.105 24.588 7.105 9.010 0 17.379-2.717 24.588-7.105 8.349-5.182 15.059-12.702 19.017-21.814 2.549-5.893 3.998-12.325 3.998-19.099 0.004-0.94-0.203-1.796-0.244-2.675zM688.228 219.086c7.438 6.416 15.515 12.119 24.176 16.925h-412.813c-3.438 0-6.505 1.38-8.971 3.427 0.022 0.501 0.146 0.958 0.146 1.461h-1.779c-2.279 2.549-3.793 5.893-3.793 9.613v358.572c-3.957 4.471-9.632 7.334-16.033 7.334h-173.779c-4.743 0-9.343-1.567-13.132-4.49-3.521-2.717-85.887-67.824-85.887-193.776v-162.83c-3.356-3.843-5.529-8.882-5.529-14.419v-111.953c0-12.035 9.673-21.774 21.605-21.774h23.657c-0.039 0.878-0.146 1.756-0.146 2.675 0 6.48 0.558 12.832 1.43 19.099 0.974 7.439 2.446 14.752 4.517 21.814 7.954 26.912 23.533 50.524 44.206 68.329 10.233 8.816 21.709 16.173 34.157 21.812 9.218 4.179 18.958 7.483 29.148 9.613 9.363 2.006 19.079 3.051 29.043 3.051 9.943 0 19.68-1.044 29.043-3.051 10.172-2.13 19.886-5.434 29.149-9.613 12.364-5.597 23.779-12.912 33.993-21.646-0.516-0.039-0.994-0.166-1.471-0.166h1.617c20.672-17.802 36.251-41.417 44.205-68.329 2.093-7.062 3.565-14.375 4.54-21.814 0.849-6.267 1.43-12.619 1.43-19.099 0-0.919-0.105-1.796-0.124-2.675h317.375c-0.039 0.878-0.144 1.756-0.144 2.675 0 6.48 0.58 12.832 1.431 19.099 0.992 7.439 2.443 14.752 4.538 21.814 7.921 26.907 23.522 50.522 44.195 68.32zM247.554 445.291h-206.302c8.37 71.543 47.748 114.229 62.124 127.539h144.177v-127.539zM886.636 150.762c-12.324 32.345-38.717 57.753-71.652 68.325-10.855 3.491-22.414 5.413-34.428 5.413-12.016 0-23.555-1.922-34.431-5.413-32.937-10.571-59.327-35.981-71.653-68.325-2.65-6.978-4.636-14.271-5.884-21.814-1.076-6.228-1.719-12.598-1.719-19.099 0-0.919 0.105-1.796 0.123-2.675 1.431-61.994 51.746-112.037 113.561-112.037 61.815 0 112.112 50.043 113.562 112.037 0.021 0.878 0.121 1.756 0.121 2.675 0 6.499-0.66 12.87-1.721 19.099-1.255 7.543-3.243 14.836-5.875 21.814zM827.909 107.175c-1.407-25.241-22.020-45.362-47.357-45.362-25.357 0-45.949 20.123-47.357 45.362-0.042 0.878-0.246 1.734-0.246 2.675 0 6.773 1.449 13.205 3.977 19.099 3.957 9.11 10.668 16.63 19.036 21.814 7.21 4.388 15.558 7.105 24.588 7.105 9.031 0 17.357-2.717 24.569-7.105 8.387-5.182 15.121-12.702 19.057-21.814 2.549-5.893 3.998-12.325 3.998-19.099 0.005-0.94-0.223-1.796-0.263-2.675zM837.358 241.549c0.474-0.189 0.908-0.46 1.407-0.65 3.357-1.546 6.711-3.091 9.94-4.887 8.66-4.805 16.72-10.511 24.155-16.925 20.692-17.799 36.271-41.414 44.205-68.325 2.113-7.065 3.564-14.375 4.558-21.815 0.829-6.268 1.428-12.618 1.428-19.098 0-0.919-0.143-1.796-0.143-2.675h45.572c11.932 0 21.583 9.735 21.583 21.774v111.955c0 0.21-0.062 0.441-0.062 0.65h-152.642z"  horiz-adv-x="1024" />

    
    <glyph glyph-name="danxuan1" unicode="&#59174;" d="M511.682996-128c-282.139429 0-511.682749 229.545367-511.682749 511.708334C0.000247 665.848786 229.543567 895.39006 511.682996 895.39006c282.162967 0 511.70731-229.54332 511.707311-511.681726 0.001023-282.166037-229.541273-511.708334-511.707311-511.708334z m0 986.246117c-261.656277 0-474.537783-212.881507-474.537783-474.53983 0-261.681862 212.880483-474.561321 474.537783-474.561321 261.680838 0 474.562345 212.87946 474.562345 474.561321 0.002047 261.658324-212.878436 474.53983-474.562345 474.53983z"  horiz-adv-x="1024" />

    
    <glyph glyph-name="pause" unicode="&#58894;" d="M146.773333 853.333333h208.64v-938.666666H146.773333zM668.586667 853.333333h208.64v-938.666666h-208.64z"  horiz-adv-x="1024" />

    
    <glyph glyph-name="duigou" unicode="&#58886;" d="M511.38 832.026c-247.397 0-447.952-200.555-447.952-447.952s200.556-447.952 447.952-447.952c247.398 0 447.952 200.555 447.952 447.952s-200.555 447.952-447.952 447.952zM760.632 507.43l-294.925-294.927c-6.657-6.656-15.382-9.984-24.107-9.984s-17.45 3.329-24.107 9.984l-155.362 155.364c-13.316 13.31-13.316 34.9 0 48.21 13.314 13.318 34.9 13.318 48.214 0l131.255-131.254 270.817 270.818c13.315 13.317 34.9 13.317 48.215 0 13.314-13.31 13.314-34.901 0-48.211z"  horiz-adv-x="1024" />

    
    <glyph glyph-name="qiche" unicode="&#58896;" d="M670.72 132.26666701h-612.693333c-31.914667 0-58.026667 26.112-58.026667 58.026666V573.61066701c0 31.914667 26.112 58.026667 58.026667 58.026666h554.666666c31.914667 0 58.026667-26.112 58.026667-58.026666V132.26666701z m-612.693333 465.237333c-13.141333 0-23.893333-10.752-23.893334-23.893333V190.29333300999997c0-13.141333 10.752-23.893333 23.893334-23.893333h578.56V573.61066701c0 13.141333-10.752 23.893333-23.893334 23.893333h-554.666666zM1033.728 132.26666701H636.586667V387.92533301h34.133333V166.40000000999999h328.874667v115.2c0 49.152-40.106667 89.258667-89.258667 89.258667h-161.28v34.133333h161.28c68.096 0 123.392-55.296 123.392-123.392V132.26666701zM953.002667 362.49600001l-52.053334 94.378667c-2.218667 3.754667-4.608 7.68-6.997333 11.946666-17.408 30.208-38.912 67.754667-80.725333 67.754667h-142.677334v-149.333333h-34.133333V570.70933301h176.810667c61.44 0 91.989333-53.248 110.250666-84.992 2.389333-4.096 4.608-8.021333 6.656-11.434666l0.341334-0.682667 52.224-94.72-29.696-16.384zM746.154667 553.64266701h34.133333v-160.768h-34.133333zM797.354667 149.33333301000005m-87.381334 0a87.381333 87.381333 0 1 1 174.762667 0 87.381333 87.381333 0 1 1-174.762667 0ZM797.354667 44.885333009999954c-57.514667 0-104.448 46.933333-104.448 104.448s46.933333 104.448 104.448 104.448 104.448-46.933333 104.448-104.448-46.933333-104.448-104.448-104.448z m0 174.762667c-38.741333 0-70.314667-31.573333-70.314667-70.314667s31.573333-70.314667 70.314667-70.314666 70.314667 31.573333 70.314666 70.314666-31.573333 70.314667-70.314666 70.314667zM183.296 149.33333301000005m-87.381333 0a87.381333 87.381333 0 1 1 174.762666 0 87.381333 87.381333 0 1 1-174.762666 0ZM183.296 44.885333009999954c-57.514667 0-104.448 46.933333-104.448 104.448s46.933333 104.448 104.448 104.448 104.448-46.933333 104.448-104.448-46.933333-104.448-104.448-104.448z m0 174.762667c-38.741333 0-70.314667-31.573333-70.314667-70.314667s31.573333-70.314667 70.314667-70.314666 70.314667 31.573333 70.314667 70.314666-31.573333 70.314667-70.314667 70.314667zM75.434667 602.79466701l-24.234667 24.234666 132.437333 132.096 132.266667-132.096-24.234667-24.234666-108.032 108.202666zM550.912 613.71733301h-34.133333V674.81600001H232.789333v34.133333h318.122667zM670.72 284.50133301000005H0.170667V467.28533301h34.133333v-148.650666h602.282667v148.650666h34.133333z"  horiz-adv-x="1038" />

    
    <glyph glyph-name="wo" unicode="&#59053;" d="M510.5 836.6c-151.8 0-274.9-123.1-274.9-274.9 0-112.5 67.7-209.1 164.5-251.6C237 262.4 117.8 111.9 117.8-66.5h39.3c0 195.2 158.2 353.4 353.4 353.4 13.5 0 26.9-0.9 40-2.4 0.2 2 0.9 3.9 1.2 5.8C683.9 310.2 785.4 424 785.4 561.7c0 151.8-123.1 274.9-274.9 274.9z m0-510.5c-130.1 0-235.6 105.5-235.6 235.6S380.4 797.3 510.5 797.3s235.6-105.5 235.6-235.6-105.5-235.6-235.6-235.6zM725 262.1c-2.3-13.6-7.7-26-15.4-36.7 93.1-63.6 154.3-170.6 154.3-291.9h39.3c0 137.6-71 258.5-178.2 328.6z"  horiz-adv-x="1024" />

    
    <glyph glyph-name="jianpanshanchu" unicode="&#59268;" d="M717.769 477.278c-11.53 11.531-30.227 11.531-41.76 0l-55.066-55.067-55.067 55.067c-11.531 11.532-30.228 11.532-41.76 0-11.531-11.53-11.531-30.227 0-41.759l55.067-55.067-54.044-54.044c-11.53-11.531-11.53-30.227 0-41.759 11.532-11.531 30.227-11.531 41.76 0l54.044 54.044 54.044-54.044c11.531-11.531 30.227-11.531 41.759 0s11.531 30.228 0 41.76l-54.044 54.043 55.067 55.067c11.532 11.531 11.532 30.228 0 41.76zM879.953 666.839H358.398c-7.31 3.05-283.682-261.068-283.682-261.068l-3.72-3.72c-3.234-3.235-5.114-7.39-5.709-11.911-2.443-8.469-1.08-16.952 4.49-22.519l264.783-265.62h545.393c39.56 0 71.631 31.223 71.631 69.737V597.102c0 38.515-32.071 69.737-71.631 69.737z m20.468-458.691c0-31.921-29.577-57.798-66.06-57.798H373.173c-0.242 0.273-0.49 0.54-0.75 0.8l-234.92 234.922 232.418 232.419H834.36c36.483 0 66.06-25.878 66.06-57.798v-352.545z"  horiz-adv-x="1024" />

    
    <glyph glyph-name="rili" unicode="&#58918;" d="M714.88 109.376h35.52c20.736 0 37.376 12.352 37.376 27.648 0 15.104-16.768 27.52-37.376 27.52h-35.52c-20.608 0-37.376-12.352-37.376-27.52 0-15.296 16.768-27.648 37.376-27.648zM714.88 274.88h35.52c20.736 0 37.376 12.352 37.376 27.648s-16.768 27.584-37.376 27.584h-35.52c-20.608 0-37.376-12.352-37.376-27.584s16.768-27.648 37.376-27.648zM494.144 274.88h35.648c20.608 0 37.312 12.352 37.312 27.648s-16.704 27.584-37.312 27.584h-35.648c-20.608 0-37.312-12.352-37.312-27.584s16.704-27.648 37.312-27.648zM273.472 274.88h35.648c20.608 0 37.312 12.352 37.312 27.648s-16.704 27.584-37.312 27.584h-35.648c-20.608 0-37.312-12.352-37.312-27.584s16.704-27.648 37.312-27.648zM494.144 109.376h35.648c20.608 0 37.312 12.352 37.312 27.648 0 15.104-16.704 27.52-37.312 27.52h-35.648c-20.608 0-37.312-12.352-37.312-27.52 0-15.296 16.704-27.648 37.312-27.648zM273.472 109.376h35.648c20.608 0 37.312 12.352 37.312 27.648 0 15.104-16.704 27.52-37.312 27.52h-35.648c-20.608 0-37.312-12.352-37.312-27.52 0-15.296 16.704-27.648 37.312-27.648zM790.848 716.16h-55.744v78.528l0.128 2.304c0 0.057 0.001 0.124 0.001 0.192 0 14.951-12.121 27.073-27.073 27.073-14.884 0-26.963-12.012-27.072-26.87v-81.226h-335.552v78.528c0.128 0.704 0.128 1.472 0.128 2.24-0.612 14.466-12.489 25.962-27.049 25.962-14.426 0-26.217-11.284-27.027-25.506l-0.003-81.223h-58.432c-89.6 0-162.496-62.848-162.496-181.44v-426.624c-0.001-0.16-0.001-0.35-0.001-0.54 0-84.581 64.091-154.192 146.358-162.918l573.835-0.83c89.472 0 162.368 73.6 162.368 164.224v443.968c0.064 90.56-72.832 164.16-162.368 164.16zM898.112 91.904c0-51.136-44.48-92.736-99.008-92.736h-574.144c-54.656 0-99.136 41.6-99.136 92.736v348.48h772.288v-348.48zM898.112 568.192v-72.64h-772.288v72.576c0 45.504 40 92.864 110.336 92.864h55.424v-82.816c0.287-14.732 12.298-26.565 27.072-26.565 14.954 0 27.077 12.123 27.077 27.077 0 0.18-0.002 0.361-0.005 0.539 0 0.741 0 1.509-0.128 2.277v79.552h335.552v-82.816h0.128c1.212-13.939 12.826-24.795 26.976-24.795 14.487 0 26.318 11.381 27.037 25.691l-0.125 2.368v79.552h52.608c54.592 0 115.072-40.32 110.336-92.864z"  horiz-adv-x="1024" />

    
    <glyph glyph-name="zhifubao" unicode="&#58926;" d="M207.592 243.1c-8.97-44.634 17.794-151.4 186.922-151.4 104.164 0 204.428 63.29 286.021 169.56-116.17 56.563-212.96 84.2-321.034 84.2-94.035 0-143.01-57.946-151.909-102.36zM412.235 15.311c-160.08 0-266.923 98.597-254.12 219.252 8.465 79.212 62.787 208.696 298.756 186.49 124.342-11.647 181.275-34.87 282.689-68.36 26.26 48.1 48.035 101.053 64.598 157.401H354.44v44.563h222.51v80.007H305.54v49.043h271.41V799.158s2.46 18.082 22.424 18.082h111.254v-133.533h289.35v-49.043h-289.35v-80.007h236.04c-21.704-88.324-54.62-169.484-95.853-240.374 51.072-18.48 237.165-76.11 328.86-104.332V748.003C1179.674 829.401 1113.075 896 1031.677 896H303.67c-81.398 0-147.996-66.599-147.996-147.997v-728.006c0-81.398 66.598-147.997 147.996-147.997h728.007c81.398 0 147.997 66.599 147.997 147.997v13.191c-97.734 42.385-290.165 126.37-399.747 178.665-101.414-122.83-207.61-196.542-367.692-196.542z"  horiz-adv-x="1310" />

    
    <glyph glyph-name="shezhi" unicode="&#58947;" d="M609.534332 849.453136v-9.513154c0-90.985914 72.629546-165.008336 161.902613-165.008336 28.609458 0 56.71896 7.709315 81.291775 22.291019l8.318261 4.934561 98.049287-171.774735-8.114279-4.755577c-77.75409-45.535953-104.697696-146.180009-60.064662-224.355062 14.205738-24.952783 34.726914-45.665942 59.345726-59.912676l8.184272-4.738579-98.021289-171.728739-8.282264 4.794574c-24.771799 14.345725-52.837304 21.930051-81.160787 21.930051a161.937609 161.937609 0 0 1-79.974893-21.171118c-25.047774-14.265732-45.919919-35.172874-60.357636-60.460627-14.206737-24.952783-21.678074-53.248268-21.595081-81.822729l0.027997-9.536153H412.923805l-0.045996 9.46216c-0.214981 43.914097-17.167474 85.157432-47.736758 116.131679-30.535286 30.937251-71.070684 47.978736-114.136857 47.978737-28.487468 0-56.467982-7.624322-80.91281-22.041042l-8.309261-4.900564-98.028289 171.71974 8.080282 4.760577c37.530665 22.117035 64.407276 57.593882 75.680275 99.892122 11.275998 42.30924 5.603502 86.432319-15.974581 124.247959-14.29173 25.054773-34.954894 45.842926-59.756689 60.119657l-8.21227 4.72958 98.074284 171.754736 8.287264-4.826571c24.86879-14.481713 53.061285-22.134033 81.527754-22.134033 27.997512 0 55.652054 7.320349 79.972893 21.171119 25.047774 14.262733 45.916919 35.172874 60.353637 60.468626 14.356724 25.111768 21.824061 53.697228 21.597081 82.680653l-0.074994 9.581148 196.225562 0.030997m-0.001 46.541864h-0.005999l-196.225562-0.030997a46.551863 46.551863 0 0 1-33.035064-13.762777 46.547863 46.547863 0 0 1-13.497801-33.145054l0.074994-9.581149c0.161986-20.759155-5.184539-41.237335-15.461626-59.213738-10.321083-18.086393-25.177763-32.988068-42.979181-43.127167a115.270756 115.270756 0 0 0-56.94294-15.072661c-20.249201 0-40.343415 5.468514-58.107836 15.813595l-8.286263 4.823571a46.525865 46.525865 0 0 1-35.489846 4.72958 46.526865 46.526865 0 0 1-28.348481-21.870056l-98.073285-171.754737c-12.71287-22.262022-5.027553-50.614502 17.188473-63.409365l8.21227-4.72958c17.647432-10.158097 32.361124-24.971781 42.557218-42.848192 15.475625-27.11959 19.533264-58.795775 11.428984-89.202073-8.10628-30.415297-27.403565-55.907032-54.337171-71.780621l-8.076282-4.758577c-21.932051-12.921852-29.414386-41.064351-16.793508-63.173386l98.027289-171.71774a46.549863 46.549863 0 0 1 40.417408-23.466914c8.245267 0 16.417541 2.189805 23.643899 6.451426l8.309262 4.900565c17.292463 10.198094 37.095703 15.589615 57.27091 15.589614 30.518288 0 59.289731-12.120923 81.012801-34.129967 21.976047-22.268021 34.164964-51.981381 34.31995-83.665564l0.044996-9.46216c0.124989-25.614724 20.92614-46.313884 46.540864-46.313884h196.160568a46.540864 46.540864 0 0 1 46.541864 46.677852l-0.027998 9.536153c-0.059995 20.461182 5.299529 40.746379 15.498623 58.656787 10.278087 18.0044 25.137766 32.906076 42.946183 43.047175a115.285755 115.285755 0 0 0 56.94094 15.07266c20.14121 0 40.141433-5.417519 57.83686-15.663608l8.287264-4.797574a46.543864 46.543864 0 0 1 35.44785-4.655586 46.537864 46.537864 0 0 1 28.290485 21.862057L998.866734 213.54964700000005c12.687872 22.225025 5.047551 50.52651-17.099481 63.349371l-8.184273 4.738579c-17.498445 10.1241-32.094148 24.875789-42.220248 42.661208-32.077149 56.183007-12.71187 128.460584 43.139167 161.167678l8.124278 4.760577c21.998045 12.890854 29.530376 41.084349 16.889499 63.227381l-98.048287 171.774735a46.536864 46.536864 0 0 1-40.419408 23.468914 46.555863 46.555863 0 0 1-23.74389-6.510421l-8.319261-4.934562a112.805975 112.805975 0 0 0-57.548885-15.779597c-63.610347 0-115.360748 53.143277-115.360749 118.466472V849.453136A46.542864 46.542864 0 0 1 609.533332 895.995zM511.351058 578.1392470000001c105.881591 0 192.020936-87.080261 192.020935-194.116749s-86.139345-194.11375-192.020935-194.11375-192.020936 87.077262-192.020936 194.11375 86.141345 194.116749 192.020936 194.116749m0 46.541864c-131.54331 0-238.5628-107.959406-238.5628-240.657613s107.01849-240.654614 238.5628-240.654614 238.5618 107.956406 238.561799 240.654614-107.01749 240.657613-238.561799 240.657613z"  horiz-adv-x="1024" />

    
    <glyph glyph-name="excel" unicode="&#58961;" d="M577.536 3.328V738.56H1024v-735.232z m157.696 656.384h-131.328v-104.96h131.328z m0-157.44h-131.328v-104.96h131.328z m0-157.44h-131.328v-104.96h131.328z m0-157.44h-131.328v-104.96h131.328zM919.04 659.712h-131.328v-104.96h131.328z m0-157.44h-131.328v-104.96h131.328z m0-157.44h-131.328v-104.96h131.328z m0-157.44h-131.328v-104.96h131.328zM0 738.56L551.424 896v-1024L0 29.44z m104.96-551.424h78.848l104.96 133.888 104.96-133.888h78.848l-144.384 183.808 144.384 183.808h-78.848l-104.96-133.888-104.96 133.888H104.96l144.384-183.808-144.384-183.808z"  horiz-adv-x="1024" />

    
    <glyph glyph-name="huoche2" unicode="&#58933;" d="M936.458549 59.08172999999999h-26.197442V216.96631200000002c0 33.89669-27.497315 61.394004-61.394004 61.394004h-16.098428V854.804023c0 5.199492-2.599746 9.999024-6.899326 12.79875l-38.996192 25.797481c-10.199004 6.699346-23.797676-0.599941-23.797676-12.79875v-185.081926l-11.598867 31.296944C735.878137 769.012401 695.582072 797.009667 650.686456 797.009667H382.212675c-45.195586 0-85.591641-28.297237-100.990138-70.793087L270.023631 695.519578V880.601504c0 12.198809-13.598672 19.598086-23.797677 12.79875l-38.996191-25.797481c-4.29958-2.799727-6.899326-7.699248-6.899327-12.79875v-576.443707h-16.098427c-33.89669 0-61.394004-27.497315-61.394005-61.394004V59.08172999999999H96.640562c-8.49917 0-15.398496-6.899326-15.398496-15.398496v-84.89171c0-8.49917 6.899326-15.398496 15.398496-15.398496h66.293526v-40.696026c0-16.99834 13.798652-30.697002 30.697003-30.697002H275.023142c16.99834 0 30.697002 13.798652 30.697003 30.697002v40.696026h421.658822v-40.696026c0-16.99834 13.798652-30.697002 30.697002-30.697002h81.392052c16.99834 0 30.697002 13.798652 30.697002 30.697002v40.696026h66.293526c8.49917 0 15.398496 6.899326 15.398496 15.398496v84.89171c-0.09999 8.59916-6.899326 15.398496-15.398496 15.398496zM290.421639 609.9279369999999h452.355824v-151.285226H290.421639V609.9279369999999zM308.919832 131.0747c0-15.998438-12.998731-28.997168-28.997168-28.997169h-52.494874c-15.998438 0-28.997168 12.998731-28.997168 28.997169v0.699931c0 15.998438 12.998731 28.997168 28.997168 28.997169h52.494874c15.998438 0 28.997168-12.998731 28.997168-28.997169v-0.699931z m342.766527-6.799336c0-16.99834-13.798652-30.697002-30.697002-30.697003H412.209745c-16.99834 0-30.697002 13.798652-30.697002 30.697003V318.856362c0 16.99834 13.798652 30.697002 30.697002 30.697002H620.989357c16.99834 0 30.697002-13.798652 30.697002-30.697002v-194.580998z m183.082121 6.799336c0-15.998438-12.998731-28.997168-28.997169-28.997169h-52.494873c-15.998438 0-28.997168 12.998731-28.997168 28.997169v0.699931c0 15.998438 12.998731 28.997168 28.997168 28.997169h52.494873c15.998438 0 28.997168-12.998731 28.997169-28.997169v-0.699931zM616.289815 267.86134200000004h-199.98047c-8.39918 0-15.198516-6.799336-15.198516-15.198516v-0.299971c0-8.39918 6.799336-15.198516 15.198516-15.198516h199.98047c8.39918 0 15.198516 6.799336 15.198516 15.198516v0.299971c0 8.39918-6.799336 15.198516-15.198516 15.198516zM616.289815 329.25534600000003h-199.98047c-8.39918 0-15.198516-6.799336-15.198516-15.198516v-0.29997c0-8.39918 6.799336-15.198516 15.198516-15.198516h199.98047c8.39918 0 15.198516 6.799336 15.198516 15.198516v0.29997c0 8.39918-6.799336 15.198516-15.198516 15.198516zM616.289815 144.973342h-199.98047c-8.39918 0-15.198516-6.799336-15.198516-15.198515v-0.299971c0-8.39918 6.799336-15.198516 15.198516-15.198516h199.98047c8.39918 0 15.198516 6.799336 15.198516 15.198516v0.299971c0 8.39918-6.799336 15.198516-15.198516 15.198515zM616.289815 206.46733700000004h-199.98047c-8.39918 0-15.198516-6.799336-15.198516-15.198516v-0.29997c0-8.39918 6.799336-15.198516 15.198516-15.198516h199.98047c8.39918 0 15.198516 6.799336 15.198516 15.198516v0.29997c0 8.39918-6.799336 15.198516-15.198516 15.198516z"  horiz-adv-x="1024" />

    
    <glyph glyph-name="jian" unicode="&#58885;" d="M821.12 88.96000000000004h-606.72v608h606.72v-608z m-574.72 32h542.72v544h-542.72v-544zM701.44 377.6h-368c-8.96 0-16 7.04-16 16s7.04 16 16 16h368c8.96 0 16-7.04 16-16S710.4 377.6 701.44 377.6z"  horiz-adv-x="1024" />

    
    <glyph glyph-name="wifi" unicode="&#58895;" d="M425.5744 124.58666667a1.3504 1.3504 0 1 1 172.8512 0 1.3504 1.3504 0 1 1-172.8512 0zM512 384c-83.21706667 0-157.0816-39.3216-204.5952-100.352l45.53386667-35.4304c36.864 47.5136 94.27626667 78.0288 159.06133333 78.0288s122.12906667-30.5152 159.19786667-78.0288l45.39733333 35.4304C669.0816 344.6784 595.21706667 384 512 384zM512 729.83893333c-194.21866667 0-366.66026667-91.88693333-477.3888-234.0864l46.55786667-36.18133333C181.17973333 587.91253333 336.75946667 670.78826667 512 670.78826667c175.17226667 0 330.82026667-82.87573333 430.83093333-211.21706667l46.62613334 36.2496C878.592 638.02026667 706.21866667 729.83893333 512 729.83893333zM512 556.91946667c-138.71786667 0-261.87093333-65.536-340.92373333-167.1168l45.4656-35.4304C285.0816 442.368 391.7824 499.3024 512 499.3024s226.85013333-56.9344 295.5264-144.93013333l45.39733333 35.4304C773.87093333 491.3152 650.71786667 556.91946667 512 556.91946667z"  horiz-adv-x="1024" />

    
    <glyph glyph-name="jiantou" unicode="&#58883;" d="M511.96600000000007 122.91999999999996L959.569 591.998l-50.69400000000002 53.081-396.86299999999994-415.93700000000007L115.12499999999994 645.05l-50.69399999999999-53.04400000000001L511.96600000000007 122.91999999999996z"  horiz-adv-x="1024" />

    
    <glyph glyph-name="lahuoche" unicode="&#58900;" d="M1007.2 151.29999999999995h-1c-6.5 0-11.8 5.3-11.8 11.8v12.4c0 6.5 5.3 11.8 11.8 11.8h1c6.5 0 11.8-5.3 11.8-11.8v-12.4c0-6.5-5.3-11.8-11.8-11.8zM634 670.4H48.3c-20.8 0-37.7-16.9-37.7-37.7v-358h661.1v358c0 20.9-16.9 37.7-37.7 37.7zM896.6 214.70000000000005h97.8v111c0 43.7-14.7 58.5-41.6 104.3-30.4 51.8-37.6 84.5-66.9 84.5H698.4c-8.3 0-15-6.7-15-15v-225.3h90.8c49.7 0.1 93.9-23.2 122.4-59.5zM989.4 206.10000000000002h-98.3l-1.6 2.1 2.1-2.1c-28.5 36.2-72.7 59.5-122.4 59.5h-715c-7.6 0-13.8-6.2-13.8-13.8v-96.4c0-7.6 6.2-13.7 13.7-13.7h35.5c4 57.5 51.7 102.9 110.2 102.9S306 199.20000000000005 310 141.70000000000005h349c4 57.5 51.7 102.9 110.2 102.9s106.2-45.4 110.2-102.9h114.9c4.6 0 8.4 3.8 8.4 8.4V191c0 7.8-5.8 14.1-13.3 15.1zM964.4 351.79999999999995H843.3c-3.5 0-6.4 2.9-6.4 6.4V483.1c0 3.5 2.9 6.4 6.4 6.4h45.4c2.2 0 4.3-1.2 5.5-3.1l75.7-124.9c2.6-4.2-0.5-9.7-5.5-9.7zM813.9 351.79999999999995h-96c-6.5 0-11.8 5.3-11.8 11.8V477.8c0 6.5 5.3 11.8 11.8 11.8h96c6.5 0 11.8-5.3 11.8-11.8v-114.2c0-6.5-5.3-11.8-11.8-11.8zM289.2 144.89999999999998c2.9 1 4.6 4 3.8 7l-3.2 11.9c-0.8 3-3.8 4.7-6.8 4.2 2.5 1.7 3.4 5 1.9 7.6l-6.2 10.7c-1.6 2.7-4.9 3.5-7.6 2.2 2 2.3 2.1 5.8-0.1 8l-8.7 8.7c-2.2 2.2-5.7 2.2-8 0.1 1.3 2.7 0.5 6.1-2.2 7.6l-10.7 6.2c-2.7 1.5-5.9 0.6-7.6-1.9 0.6 3-1.2 6-4.2 6.8l-11.9 3.2c-3 0.8-6-0.9-7-3.8-0.3 3-2.6 5.4-5.7 5.4h-12.4c-3.1 0-5.4-2.4-5.7-5.4-1 2.9-4 4.6-7 3.8L168 224c-3-0.8-4.7-3.8-4.2-6.8-1.7 2.5-5 3.4-7.6 1.9l-10.7-6.2c-2.7-1.6-3.5-4.9-2.2-7.6-2.3 2-5.8 2.1-8-0.1l-8.7-8.7c-2.2-2.2-2.2-5.7-0.1-8-2.7 1.3-6.1 0.5-7.6-2.2l-6.2-10.7c-1.5-2.7-0.6-5.9 1.9-7.6-3 0.6-6-1.2-6.8-4.2l-3.2-11.9c-0.8-3 0.9-6 3.8-7-3-0.3-5.4-2.6-5.4-5.7v-12.4c0-3.1 2.4-5.4 5.4-5.7-2.9-1-4.6-4-3.8-7l3.2-11.9c0.8-3 3.8-4.7 6.8-4.2-2.5-1.7-3.4-5-1.9-7.6l6.2-10.7c1.6-2.7 4.9-3.5 7.6-2.2-2-2.3-2.1-5.8 0.1-8l8.7-8.7c2.2-2.2 5.6-2.2 8-0.1-1.3-2.7-0.5-6.1 2.2-7.6l10.7-6.2c2.7-1.5 5.9-0.6 7.6 1.9-0.6-3 1.2-6 4.2-6.8l11.9-3.2c3-0.8 6 0.9 7 3.8 0.3-3 2.6-5.4 5.7-5.4H205c3.1 0 5.4 2.4 5.7 5.4 1-2.9 4-4.6 7-3.8l11.9 3.2c3 0.8 4.7 3.8 4.2 6.8 1.7-2.5 5-3.4 7.6-1.9L252 53c2.7 1.6 3.5 4.9 2.2 7.6 2.3-2 5.8-2.1 8 0.1l8.7 8.7c2.2 2.2 2.2 5.6 0.1 8 2.7-1.3 6.1-0.5 7.6 2.2l6.2 10.7c1.5 2.7 0.6 5.9-1.9 7.6 3-0.6 6 1.2 6.8 4.2l3.2 11.9c0.8 3-0.9 6-3.8 7 3 0.3 5.4 2.6 5.4 5.7v12.4c0.1 3.1-2.3 5.5-5.3 5.8zM172.376227 123.41715799999997a28 28 0 1 1 52.623121 19.152209 28 28 0 1 1-52.623121-19.152209ZM273.4 160.20000000000005c-15 41.3-60.7 62.6-101.9 47.5-41.3-15-62.6-60.7-47.5-101.9 15-41.3 60.7-62.6 101.9-47.5 41.3 15 62.6 60.6 47.5 101.9z m-55.9-78.8c-28.5-10.4-60 4.3-70.3 32.8-10.4 28.5 4.3 60 32.8 70.3 28.5 10.4 60-4.3 70.3-32.8 10.3-28.4-4.4-59.9-32.8-70.3zM861.3 144.89999999999998c2.9 1 4.6 4 3.8 7l-3.2 11.9c-0.8 3-3.8 4.7-6.8 4.2 2.5 1.7 3.4 5 1.9 7.6l-6.2 10.7c-1.6 2.7-4.9 3.5-7.6 2.2 2 2.3 2.1 5.8-0.1 8l-8.7 8.7c-2.2 2.2-5.7 2.2-8 0.1 1.3 2.7 0.5 6.1-2.2 7.6l-10.7 6.2c-2.7 1.5-5.9 0.6-7.6-1.9 0.6 3-1.2 6-4.2 6.8l-11.9 3.2c-3 0.8-6-0.9-7-3.8-0.3 3-2.6 5.4-5.7 5.4h-12.4c-3.1 0-5.4-2.4-5.7-5.4-1 2.9-4 4.6-7 3.8l-11.9-3.2c-3-0.8-4.7-3.8-4.2-6.8-1.7 2.5-5 3.4-7.6 1.9l-10.7-6.2c-2.7-1.6-3.5-4.9-2.2-7.6-2.3 2-5.8 2.1-8-0.1l-8.7-8.7c-2.2-2.2-2.2-5.7-0.1-8-2.7 1.3-6.1 0.5-7.6-2.2l-6.2-10.7c-1.5-2.7-0.6-5.9 1.9-7.6-3 0.6-6-1.2-6.8-4.2l-3.2-11.9c-0.8-3 0.9-6 3.8-7-3-0.3-5.4-2.6-5.4-5.7v-12.4c0-3.1 2.4-5.4 5.4-5.7-2.9-1-4.6-4-3.8-7l3.2-11.9c0.8-3 3.8-4.7 6.8-4.2-2.5-1.7-3.4-5-1.9-7.6l6.2-10.7c1.6-2.7 4.9-3.5 7.6-2.2-2-2.3-2.1-5.8 0.1-8l8.7-8.7c2.2-2.2 5.6-2.2 8-0.1-1.3-2.7-0.5-6.1 2.2-7.6l10.7-6.2c2.7-1.5 5.9-0.6 7.6 1.9-0.6-3 1.2-6 4.2-6.8l11.9-3.2c3-0.8 6 0.9 7 3.8 0.3-3 2.6-5.4 5.7-5.4H777c3.1 0 5.4 2.4 5.7 5.4 1-2.9 4-4.6 7-3.8l11.9 3.2c3 0.8 4.7 3.8 4.2 6.8 1.7-2.5 5-3.4 7.6-1.9l10.7 6.2c2.7 1.6 3.5 4.9 2.2 7.6 2.3-2 5.8-2.1 8 0.1l8.7 8.7c2.2 2.2 2.2 5.6 0.1 8 2.7-1.3 6.1-0.5 7.6 2.2l6.2 10.7c1.5 2.7 0.6 5.9-1.9 7.6 3-0.6 6 1.2 6.8 4.2l3.2 11.9c0.8 3-0.9 6-3.8 7 3 0.3 5.4 2.6 5.4 5.7v12.4c0.2 3-2.3 5.4-5.3 5.7zM797.1 142.60000000000002c7.5-20.7-10.8-44.5-38.5-35.8-24.4 15.7-18 45 2.7 52.6 14.5 5.2 30.5-2.3 35.8-16.8zM845.6 160.20000000000005c-15 41.3-60.7 62.6-101.9 47.5-41.3-15-62.6-60.7-47.5-101.9 15-41.3 60.7-62.6 101.9-47.5 41.2 15 62.5 60.6 47.5 101.9z m-56-78.8c-28.5-10.4-60 4.3-70.3 32.8-10.4 28.5 4.3 60 32.8 70.3 28.5 10.4 60-4.3 70.3-32.8 10.4-28.4-4.3-59.9-32.8-70.3zM910.4 506.6h42.5v-5.4h-42.5zM947.8 506.6h5.1v-50.5h-5.1zM942.4 475.1h8v-18.9h-8zM165.9 351.79999999999995H163c-18.2 0-33.1 14.9-33.1 33.1V551c0 18.2 14.9 33.1 33.1 33.1h2.9c18.2 0 33.1-14.9 33.1-33.1v-166c0-18.3-14.9-33.2-33.1-33.2zM342.3 351.79999999999995h-2.9c-18.2 0-33.1 14.9-33.1 33.1V551c0 18.2 14.9 33.1 33.1 33.1h2.9c18.2 0 33.1-14.9 33.1-33.1v-166c0-18.3-14.9-33.2-33.1-33.2zM516.6 351.79999999999995h-2.9c-18.2 0-33.1 14.9-33.1 33.1V551c0 18.2 14.9 33.1 33.1 33.1h2.9c18.2 0 33.1-14.9 33.1-33.1v-166c0-18.3-14.9-33.2-33.1-33.2z"  horiz-adv-x="1024" />

    


  </font>
</defs>
</svg>
